<svg xmlns="http://www.w3.org/2000/svg" xmlns:xlink="http://www.w3.org/1999/xlink" width="1080" zoomAndPan="magnify" viewBox="0 0 810 809.999993" height="1080" preserveAspectRatio="xMidYMid meet" version="1.2"><defs><clipPath id="54a1ffaed7"><path d="M 342 25.449219 L 497 25.449219 L 497 78 L 342 78 Z M 342 25.449219 "/></clipPath><clipPath id="f508206b6a"><path d="M 342 150 L 732 150 L 732 775.449219 L 342 775.449219 Z M 342 150 "/></clipPath><clipPath id="3c7069538b"><path d="M 35.652344 399 L 211 399 L 211 419 L 35.652344 419 Z M 35.652344 399 "/></clipPath></defs><g id="4cd207ccb2"><path style=" stroke:none;fill-rule:nonzero;fill:#3c3c3b;fill-opacity:1;" d="M 419.421875 719.542969 C 388.707031 719.542969 358.664062 714.1875 330.117188 703.628906 C 325.105469 701.773438 322.542969 696.207031 324.398438 691.195312 C 326.25 686.183594 331.816406 683.632812 336.828125 685.476562 C 363.21875 695.234375 391.007812 700.191406 419.421875 700.191406 C 550.707031 700.191406 657.515625 593.386719 657.515625 462.113281 C 657.515625 330.828125 550.707031 224.023438 419.421875 224.023438 C 381.273438 224.023438 344.832031 232.773438 311.117188 250.03125 C 306.367188 252.464844 300.535156 250.585938 298.097656 245.828125 C 295.664062 241.070312 297.542969 235.242188 302.304688 232.804688 C 338.777344 214.136719 378.179688 204.667969 419.425781 204.667969 C 561.382812 204.667969 676.871094 320.15625 676.871094 462.113281 C 676.863281 604.058594 561.375 719.542969 419.421875 719.542969 Z M 419.421875 719.542969 "/><path style=" stroke:none;fill-rule:nonzero;fill:#3c3c3b;fill-opacity:1;" d="M 417.113281 294.058594 C 411.769531 294.058594 407.4375 289.726562 407.4375 284.382812 L 407.4375 215.261719 C 407.4375 209.917969 411.769531 205.585938 417.113281 205.585938 C 422.460938 205.585938 426.789062 209.917969 426.789062 215.261719 L 426.789062 284.382812 C 426.789062 289.722656 422.460938 294.058594 417.113281 294.058594 Z M 417.113281 294.058594 "/><path style=" stroke:none;fill-rule:nonzero;fill:#3c3c3b;fill-opacity:1;" d="M 417.113281 719.542969 C 411.769531 719.542969 407.4375 715.210938 407.4375 709.867188 L 407.4375 640.746094 C 407.4375 635.402344 411.769531 631.070312 417.113281 631.070312 C 422.460938 631.070312 426.789062 635.402344 426.789062 640.746094 L 426.789062 709.867188 C 426.789062 715.210938 422.460938 719.542969 417.113281 719.542969 Z M 417.113281 719.542969 "/><path style=" stroke:none;fill-rule:nonzero;fill:#3c3c3b;fill-opacity:1;" d="M 588.5625 646.792969 C 586.039062 646.792969 583.511719 645.808594 581.617188 643.851562 L 533.5 594.238281 C 529.78125 590.402344 529.871094 584.28125 533.710938 580.558594 C 537.546875 576.839844 543.679688 576.925781 547.394531 580.769531 L 595.511719 630.382812 C 599.230469 634.21875 599.136719 640.339844 595.296875 644.0625 C 593.421875 645.886719 590.992188 646.792969 588.5625 646.792969 Z M 588.5625 646.792969 "/><path style=" stroke:none;fill-rule:nonzero;fill:#3c3c3b;fill-opacity:1;" d="M 549.773438 351.636719 C 547.25 351.636719 544.722656 350.652344 542.828125 348.695312 C 539.105469 344.859375 539.199219 338.730469 543.039062 335.011719 L 592.652344 286.898438 C 596.484375 283.179688 602.613281 283.269531 606.332031 287.105469 C 610.054688 290.941406 609.960938 297.070312 606.121094 300.789062 L 556.507812 348.902344 C 554.632812 350.730469 552.199219 351.636719 549.773438 351.636719 Z M 549.773438 351.636719 "/><path style=" stroke:none;fill-rule:nonzero;fill:#3c3c3b;fill-opacity:1;" d="M 663.527344 472.699219 L 588.730469 472.699219 C 583.386719 472.699219 579.054688 468.367188 579.054688 463.019531 C 579.054688 457.675781 583.386719 453.34375 588.730469 453.34375 L 663.527344 453.34375 C 668.871094 453.34375 673.203125 457.675781 673.203125 463.019531 C 673.203125 468.367188 668.871094 472.699219 663.527344 472.699219 Z M 663.527344 472.699219 "/><path style=" stroke:none;fill-rule:nonzero;fill:#3c3c3b;fill-opacity:1;" d="M 402.472656 67.960938 L 436.394531 67.960938 L 436.394531 159.6875 L 402.472656 159.6875 Z M 402.472656 67.960938 "/><path style=" stroke:none;fill-rule:nonzero;fill:#3c3c3b;fill-opacity:1;" d="M 436.394531 169.363281 L 402.46875 169.363281 C 397.125 169.363281 392.792969 165.03125 392.792969 159.6875 L 392.792969 67.960938 C 392.792969 62.613281 397.125 58.285156 402.46875 58.285156 L 436.394531 58.285156 C 441.738281 58.285156 446.070312 62.613281 446.070312 67.960938 L 446.070312 159.6875 C 446.070312 165.03125 441.738281 169.363281 436.394531 169.363281 Z M 412.148438 150.011719 L 426.722656 150.011719 L 426.722656 77.636719 L 412.148438 77.636719 Z M 412.148438 150.011719 "/><path style=" stroke:none;fill-rule:nonzero;fill:#3c3c3b;fill-opacity:1;" d="M 487.109375 51.515625 C 487.109375 60.597656 474.078125 67.957031 457.992188 67.957031 L 380.859375 67.957031 C 364.773438 67.957031 351.757812 60.59375 351.757812 51.515625 C 351.757812 42.433594 364.773438 35.074219 380.859375 35.074219 L 457.992188 35.074219 C 474.078125 35.074219 487.109375 42.433594 487.109375 51.515625 Z M 487.109375 51.515625 "/><g clip-rule="nonzero" clip-path="url(#54a1ffaed7)"><path style=" stroke:none;fill-rule:nonzero;fill:#3c3c3b;fill-opacity:1;" d="M 457.992188 77.636719 L 380.859375 77.636719 C 358.75 77.636719 342.078125 66.40625 342.078125 51.515625 C 342.078125 36.625 358.75 25.398438 380.859375 25.398438 L 457.992188 25.398438 C 480.105469 25.398438 496.78125 36.625 496.78125 51.515625 C 496.785156 66.402344 480.105469 77.636719 457.992188 77.636719 Z M 380.863281 44.753906 C 368.402344 44.753906 361.742188 49.960938 361.429688 51.542969 C 361.734375 53.070312 368.390625 58.285156 380.863281 58.285156 L 457.996094 58.285156 C 470.46875 58.285156 477.125 53.070312 477.433594 51.488281 C 477.121094 49.964844 470.453125 44.757812 457.996094 44.757812 L 380.863281 44.757812 Z M 380.863281 44.753906 "/></g><path style=" stroke:none;fill-rule:nonzero;fill:#3c3c3b;fill-opacity:1;" d="M 681.445312 164.429688 L 705.785156 188.070312 L 641.875 253.863281 L 617.535156 230.222656 Z M 681.445312 164.429688 "/><path style=" stroke:none;fill-rule:nonzero;fill:#3c3c3b;fill-opacity:1;" d="M 641.898438 263.5 C 639.46875 263.5 637.039062 262.589844 635.15625 260.765625 L 610.816406 237.121094 C 608.972656 235.332031 607.921875 232.886719 607.882812 230.320312 C 607.84375 227.753906 608.828125 225.277344 610.617188 223.4375 L 674.535156 157.648438 C 678.261719 153.816406 684.386719 153.730469 688.21875 157.449219 L 712.554688 181.085938 C 714.398438 182.875 715.449219 185.320312 715.488281 187.886719 C 715.527344 190.453125 714.539062 192.925781 712.75 194.769531 L 648.839844 260.5625 C 646.941406 262.519531 644.417969 263.5 641.898438 263.5 Z M 631.238281 229.980469 L 641.699219 240.140625 L 692.125 188.222656 L 681.671875 178.066406 Z M 631.238281 229.980469 "/><path style=" stroke:none;fill-rule:nonzero;fill:#3c3c3b;fill-opacity:1;" d="M 753.652344 211.574219 C 747.324219 218.089844 732.847656 214.292969 721.304688 203.082031 L 665.984375 149.335938 C 654.441406 138.125 650.226562 123.773438 656.558594 117.261719 C 662.886719 110.746094 677.355469 114.542969 688.898438 125.753906 L 744.21875 179.496094 C 755.757812 190.703125 759.972656 205.058594 753.652344 211.574219 Z M 753.652344 211.574219 "/><path style=" stroke:none;fill-rule:nonzero;fill:#3c3c3b;fill-opacity:1;" d="M 745.078125 224.433594 C 735.261719 224.433594 723.855469 219.042969 714.5625 210.023438 L 659.234375 156.273438 C 652.476562 149.707031 647.523438 141.890625 645.28125 134.257812 C 642.519531 124.84375 644.097656 116.191406 649.617188 110.511719 C 653.503906 106.511719 658.867188 104.394531 665.121094 104.394531 C 674.933594 104.394531 686.335938 109.785156 695.632812 118.804688 L 750.957031 172.550781 C 766.816406 187.957031 770.960938 207.628906 760.59375 218.3125 C 756.699219 222.320312 751.335938 224.433594 745.078125 224.433594 Z M 665.121094 123.75 C 664.09375 123.75 663.578125 123.949219 663.472656 124.019531 C 662.632812 125.328125 663.78125 133.703125 672.722656 142.394531 L 728.046875 196.144531 C 734.40625 202.316406 741.1875 205.082031 745.078125 205.082031 C 746.113281 205.082031 746.632812 204.882812 746.734375 204.8125 C 747.566406 203.507812 746.410156 195.121094 737.46875 186.433594 L 682.148438 132.691406 C 675.789062 126.515625 669.015625 123.75 665.121094 123.75 Z M 665.121094 123.75 "/><g clip-rule="nonzero" clip-path="url(#f508206b6a)"><path style=" stroke:none;fill-rule:nonzero;fill:#29abe3;fill-opacity:1;" d="M 419.425781 775.117188 C 395.863281 775.117188 372.371094 772.480469 349.601562 767.285156 C 344.390625 766.09375 341.132812 760.910156 342.320312 755.695312 C 343.511719 750.492188 348.675781 747.207031 353.910156 748.417969 C 375.265625 753.292969 397.308594 755.761719 419.425781 755.761719 C 581.097656 755.761719 712.632812 624.234375 712.632812 462.5625 C 712.632812 300.890625 581.101562 169.363281 419.425781 169.363281 C 397.3125 169.363281 375.265625 171.835938 353.902344 176.710938 C 348.695312 177.902344 343.507812 174.636719 342.316406 169.429688 C 341.128906 164.21875 344.386719 159.027344 349.601562 157.839844 C 372.375 152.644531 395.867188 150.011719 419.425781 150.011719 C 591.769531 150.011719 731.984375 290.222656 731.984375 462.5625 C 731.984375 634.90625 591.773438 775.117188 419.425781 775.117188 Z M 419.425781 775.117188 "/></g><path style=" stroke:none;fill-rule:nonzero;fill:#29abe3;fill-opacity:1;" d="M 419.425781 472.238281 C 417.65625 472.238281 415.890625 471.753906 414.339844 470.792969 C 411.488281 469.027344 409.75 465.914062 409.75 462.5625 L 409.75 325.96875 C 409.75 320.621094 414.078125 316.289062 419.425781 316.289062 C 424.769531 316.289062 429.101562 320.621094 429.101562 325.96875 L 429.101562 446.90625 L 500.625 411.148438 C 505.40625 408.757812 511.214844 410.695312 513.605469 415.476562 C 515.992188 420.257812 514.054688 426.070312 509.277344 428.457031 L 423.75 471.214844 C 422.386719 471.898438 420.902344 472.238281 419.425781 472.238281 Z M 419.425781 472.238281 "/><path style=" stroke:none;fill-rule:nonzero;fill:#3c3c3b;fill-opacity:1;" d="M 268.347656 274.796875 L 181.875 274.796875 C 176.53125 274.796875 172.199219 270.464844 172.199219 265.117188 C 172.199219 259.773438 176.53125 255.441406 181.875 255.441406 L 268.347656 255.441406 C 273.695312 255.441406 278.027344 259.773438 278.027344 265.117188 C 278.027344 270.464844 273.695312 274.796875 268.347656 274.796875 Z M 268.347656 274.796875 "/><path style=" stroke:none;fill-rule:nonzero;fill:#3c3c3b;fill-opacity:1;" d="M 290.339844 720.457031 L 203.867188 720.457031 C 198.523438 720.457031 194.191406 716.125 194.191406 710.78125 C 194.191406 705.433594 198.523438 701.105469 203.867188 701.105469 L 290.339844 701.105469 C 295.6875 701.105469 300.015625 705.433594 300.015625 710.78125 C 300.015625 716.125 295.6875 720.457031 290.339844 720.457031 Z M 290.339844 720.457031 "/><path style=" stroke:none;fill-rule:nonzero;fill:#3c3c3b;fill-opacity:1;" d="M 196.378906 499.675781 L 50.160156 499.675781 C 44.816406 499.675781 40.484375 495.34375 40.484375 490 C 40.484375 484.652344 44.816406 480.324219 50.160156 480.324219 L 196.378906 480.324219 C 201.722656 480.324219 206.054688 484.652344 206.054688 490 C 206.054688 495.34375 201.71875 499.675781 196.378906 499.675781 Z M 196.378906 499.675781 "/><path style=" stroke:none;fill-rule:nonzero;fill:#3c3c3b;fill-opacity:1;" d="M 207.179688 578.417969 L 60.960938 578.417969 C 55.617188 578.417969 51.285156 574.085938 51.285156 568.742188 C 51.285156 563.394531 55.617188 559.0625 60.960938 559.0625 L 207.179688 559.0625 C 212.527344 559.0625 216.855469 563.394531 216.855469 568.742188 C 216.855469 574.085938 212.523438 578.417969 207.179688 578.417969 Z M 207.179688 578.417969 "/><path style=" stroke:none;fill-rule:nonzero;fill:#3c3c3b;fill-opacity:1;" d="M 250.417969 656.300781 L 104.199219 656.300781 C 98.855469 656.300781 94.523438 651.972656 94.523438 646.625 C 94.523438 641.28125 98.855469 636.949219 104.199219 636.949219 L 250.414062 636.949219 C 255.757812 636.949219 260.089844 641.28125 260.089844 646.625 C 260.089844 651.972656 255.757812 656.300781 250.417969 656.300781 Z M 250.417969 656.300781 "/><path style=" stroke:none;fill-rule:nonzero;fill:#3c3c3b;fill-opacity:1;" d="M 225.113281 342.308594 L 87.484375 342.308594 C 82.136719 342.308594 77.808594 337.976562 77.808594 332.632812 C 77.808594 327.285156 82.136719 322.957031 87.484375 322.957031 L 225.113281 322.957031 C 230.457031 322.957031 234.789062 327.285156 234.789062 332.632812 C 234.789062 337.976562 230.457031 342.308594 225.113281 342.308594 Z M 225.113281 342.308594 "/><g clip-rule="nonzero" clip-path="url(#3c7069538b)"><path style=" stroke:none;fill-rule:nonzero;fill:#3c3c3b;fill-opacity:1;" d="M 201.070312 418.796875 L 45.460938 418.796875 C 40.117188 418.796875 35.785156 414.464844 35.785156 409.121094 C 35.785156 403.777344 40.117188 399.445312 45.460938 399.445312 L 201.070312 399.445312 C 206.414062 399.445312 210.746094 403.777344 210.746094 409.121094 C 210.746094 414.464844 206.414062 418.796875 201.070312 418.796875 Z M 201.070312 418.796875 "/></g></g></svg>