<svg xmlns="http://www.w3.org/2000/svg" xmlns:xlink="http://www.w3.org/1999/xlink" width="1080" zoomAndPan="magnify" viewBox="0 0 810 809.999993" height="1080" preserveAspectRatio="xMidYMid meet" version="1.2"><g id="277f13d5d4"><path style=" stroke:none;fill-rule:nonzero;fill:#000000;fill-opacity:1;" d="M 787.511719 327.824219 C 787.511719 327.109375 787.226562 326.394531 787.082031 325.679688 C 786.941406 324.964844 786.65625 324.25 786.371094 323.679688 C 786.371094 323.535156 786.371094 323.25 786.082031 323.109375 L 681.210938 143.601562 C 689.355469 141.886719 697.070312 138.742188 703.785156 134.027344 C 716.929688 124.738281 731.074219 106.585938 724.644531 73.859375 C 718.21875 41.558594 693.5 29.410156 671.640625 31.554688 C 648.492188 33.839844 631.0625 50.992188 631.203125 71.285156 C 631.203125 77.144531 636.0625 82.003906 641.921875 82.003906 C 647.777344 82.003906 652.636719 77.144531 652.636719 71.285156 C 652.636719 60.851562 663.496094 54.136719 673.78125 52.992188 C 679.496094 52.421875 698.5 52.421875 703.644531 78.144531 C 707.074219 95.722656 703.070312 108.300781 691.214844 116.734375 C 680.070312 124.738281 664.351562 126.023438 650.492188 120.019531 L 464.753906 40.988281 C 461.894531 17.976562 442.464844 0.113281 418.746094 0.113281 C 395.027344 0.113281 376.742188 16.976562 372.882812 38.84375 L 182 120.019531 C 167.996094 126.023438 152.421875 124.738281 141.277344 116.734375 C 129.5625 108.300781 125.421875 95.722656 128.847656 78.289062 C 134.136719 52.5625 153.136719 52.5625 158.851562 53.132812 C 169.140625 54.136719 180.140625 60.996094 180 71.429688 C 180 77.289062 184.714844 82.148438 190.714844 82.148438 C 196.574219 82.148438 201.429688 77.429688 201.429688 71.429688 C 201.429688 51.132812 184.140625 34.125 160.996094 31.839844 C 138.992188 29.554688 114.277344 41.84375 107.703125 74.144531 C 101.417969 106.871094 115.703125 124.878906 128.707031 134.167969 C 135.421875 139.027344 143.136719 142.171875 151.28125 143.886719 L 46.410156 323.394531 C 46.410156 323.394531 46.410156 323.824219 46.125 323.964844 C 45.835938 324.535156 45.695312 325.25 45.410156 325.964844 C 45.265625 326.679688 44.980469 327.394531 44.980469 328.109375 C 44.980469 328.394531 44.980469 328.539062 44.980469 328.824219 L 44.980469 359.550781 C 44.980469 415.148438 90.273438 460.453125 145.851562 460.453125 L 175.855469 460.453125 C 231.433594 460.453125 276.726562 415.148438 276.726562 359.550781 L 276.726562 328.824219 C 276.726562 328.824219 276.726562 328.394531 276.726562 328.109375 C 276.726562 327.394531 276.441406 326.679688 276.296875 325.964844 C 276.15625 325.25 275.871094 324.535156 275.582031 323.964844 C 275.582031 323.824219 275.582031 323.535156 275.296875 323.394531 L 170.855469 144.601562 C 177.425781 143.886719 184.140625 142.601562 190.570312 139.886719 L 374.742188 61.566406 C 380.882812 80.003906 398.171875 93.4375 418.746094 93.4375 C 439.320312 93.4375 455.464844 80.859375 462.179688 63.28125 L 642.0625 139.886719 C 648.492188 142.601562 655.066406 144.03125 661.636719 144.601562 L 557.195312 323.394531 C 557.195312 323.394531 557.195312 323.824219 556.910156 323.964844 C 556.621094 324.535156 556.480469 325.25 556.195312 325.964844 C 556.050781 326.679688 555.765625 327.394531 555.765625 328.109375 C 555.765625 328.394531 555.765625 328.539062 555.765625 328.824219 L 555.765625 359.550781 C 555.765625 415.148438 601.058594 460.453125 656.636719 460.453125 L 686.640625 460.453125 C 742.21875 460.453125 787.511719 415.148438 787.511719 359.550781 L 787.511719 328.824219 C 787.511719 328.824219 787.511719 328.394531 787.511719 328.109375 Z M 160.996094 169.898438 L 247.4375 317.820312 L 74.554688 317.820312 Z M 758.222656 317.820312 L 585.339844 317.820312 L 671.78125 169.898438 Z M 692.640625 554.492188 C 700.644531 565.785156 698.070312 580.933594 686.925781 589.078125 L 529.90625 701.414062 C 509.042969 716.417969 483.898438 724.421875 457.753906 723.996094 L 283.871094 721.707031 C 250.867188 721.421875 218.148438 730.855469 190.285156 748.71875 L 87.699219 646.105469 L 158.851562 590.652344 C 187 568.640625 222.148438 557.78125 257.722656 559.78125 C 347.308594 565.070312 406.460938 570.070312 420.03125 573.359375 C 428.746094 575.359375 438.464844 586.933594 438.464844 600.082031 C 438.464844 615.234375 425.890625 626.667969 403.03125 632.097656 C 339.449219 647.246094 282.585938 650.105469 282.011719 650.105469 C 276.15625 650.390625 271.582031 655.394531 271.867188 661.253906 C 272.15625 666.96875 276.871094 671.398438 282.585938 671.398438 C 282.726562 671.398438 282.871094 671.398438 283.15625 671.398438 C 285.585938 671.398438 342.59375 668.542969 408.171875 652.820312 C 434.890625 646.390625 448.035156 633.957031 454.324219 622.378906 C 485.042969 627.523438 516.902344 622.523438 544.476562 608.085938 L 661.207031 546.773438 C 670.640625 541.773438 682.496094 543.632812 690.070312 551.207031 C 690.925781 552.0625 691.925781 553.207031 692.640625 554.351562 Z M 175.710938 764.441406 C 185.429688 774.160156 185.429688 790.023438 175.140625 800.3125 C 165.855469 809.746094 149.28125 809.746094 139.851562 800.3125 L 30.691406 691.121094 C 20.976562 681.40625 20.976562 665.539062 31.265625 655.25 C 40.980469 645.53125 56.839844 645.53125 66.554688 655.25 Z M 440.605469 110.585938 L 440.605469 496.46875 L 402.03125 496.46875 L 402.03125 112.160156 C 407.460938 113.589844 413.03125 114.589844 418.890625 114.589844 C 426.460938 114.589844 433.75 113.015625 440.605469 110.730469 Z M 365.023438 517.90625 L 478.46875 517.90625 C 530.332031 517.90625 551.765625 564.78125 552.621094 566.355469 L 557.050781 577.359375 L 534.621094 589.078125 C 511.757812 601.085938 485.46875 605.371094 460.039062 601.511719 C 460.039062 600.941406 460.039062 600.371094 460.039062 599.796875 C 460.039062 577.789062 444.605469 556.78125 425.175781 552.207031 C 410.746094 548.777344 361.167969 544.773438 309.730469 541.34375 C 325.304688 526.195312 344.734375 517.761719 365.167969 517.761719 Z M 365.023438 517.90625 "/></g></svg>