<svg xmlns="http://www.w3.org/2000/svg" xmlns:xlink="http://www.w3.org/1999/xlink" width="1080" zoomAndPan="magnify" viewBox="0 0 810 809.999993" height="1080" preserveAspectRatio="xMidYMid meet" version="1.2"><defs><clipPath id="c912e8e54c"><path d="M 15.878906 17.019531 L 794.113281 17.019531 L 794.113281 793 L 15.878906 793 Z M 15.878906 17.019531 "/></clipPath></defs><g id="d62c2c0ec4"><g clip-rule="nonzero" clip-path="url(#c912e8e54c)"><path style=" stroke:none;fill-rule:nonzero;fill:#000000;fill-opacity:1;" d="M 404.386719 16.980469 C 197.734375 16.980469 28.589844 178.070312 15.878906 380.679688 L 282.597656 380.679688 L 282.597656 307.933594 C 282.597656 294.554688 293.507812 283.691406 306.953125 283.691406 L 501.816406 283.691406 C 515.261719 283.691406 526.171875 294.554688 526.171875 307.933594 L 526.171875 501.90625 C 526.171875 515.292969 515.261719 526.15625 501.816406 526.15625 L 306.953125 526.15625 C 293.507812 526.15625 282.597656 515.292969 282.597656 501.90625 L 282.597656 429.171875 L 15.878906 429.171875 C 28.589844 631.765625 197.734375 792.863281 404.386719 792.863281 C 619.273438 792.863281 794.113281 618.820312 794.113281 404.917969 C 794.113281 191.019531 619.273438 16.980469 404.386719 16.980469 Z M 404.386719 16.980469 "/></g></g></svg>