<svg xmlns="http://www.w3.org/2000/svg" xmlns:xlink="http://www.w3.org/1999/xlink" width="1080" zoomAndPan="magnify" viewBox="0 0 810 809.999993" height="1080" preserveAspectRatio="xMidYMid meet" version="1.2"><defs><clipPath id="a7df034a5a"><path d="M 89.488281 108.8125 L 720.238281 108.8125 L 720.238281 699 L 89.488281 699 Z M 89.488281 108.8125 "/></clipPath></defs><g id="34805e354b"><path style=" stroke:none;fill-rule:nonzero;fill:#000000;fill-opacity:1;" d="M 558.390625 316.796875 C 559.539062 316.414062 558.773438 316.796875 561.074219 315.519531 C 567.976562 311.683594 572.070312 305.929688 572.070312 298.390625 C 572.070312 290.847656 564.144531 280.75 554.425781 280.75 C 544.710938 280.75 536.785156 288.675781 536.785156 298.390625 C 536.785156 308.105469 538.449219 306.316406 540.878906 309.382812 C 523.109375 312.578125 512.753906 305.929688 491.789062 294.808594 C 453.695312 274.355469 418.671875 279.597656 418.671875 279.597656 C 430.429688 258.632812 415.21875 246.871094 415.21875 246.871094 C 409.210938 238.820312 419.054688 233.960938 419.054688 233.960938 C 433.625 223.609375 415.601562 206.222656 415.601562 206.222656 C 408.828125 198.808594 406.015625 193.566406 404.609375 189.988281 C 403.203125 193.566406 400.261719 198.808594 393.613281 206.222656 C 393.613281 206.222656 375.589844 223.609375 390.164062 233.960938 C 390.164062 233.960938 400.007812 238.820312 394 246.871094 C 394 246.871094 378.785156 258.632812 390.546875 279.597656 C 390.546875 279.597656 355.648438 274.355469 317.425781 294.808594 C 296.589844 306.058594 286.109375 312.578125 268.339844 309.382812 C 270.769531 306.316406 272.429688 302.609375 272.429688 298.390625 C 272.429688 288.675781 264.503906 280.75 254.789062 280.75 C 245.074219 280.75 237.148438 288.675781 237.148438 298.390625 C 237.148438 308.105469 241.238281 311.683594 248.140625 315.519531 C 250.441406 316.796875 249.804688 316.414062 250.828125 316.796875 L 192.023438 438.109375 C 199.695312 466.359375 225.261719 487.195312 255.941406 487.195312 C 286.621094 487.195312 312.1875 466.359375 319.855469 438.109375 C 319.855469 438.109375 261.949219 319.097656 261.949219 319.097656 C 284.320312 324.082031 297.355469 319.992188 316.914062 311.9375 C 340.054688 302.351562 393.359375 281.257812 395.148438 366.652344 L 396.683594 566.453125 C 396.683594 566.453125 372.652344 564.023438 371.882812 573.996094 C 371.882812 573.996094 353.601562 576.039062 353.601562 584.605469 L 455.996094 584.605469 C 455.996094 576.039062 437.71875 573.996094 437.71875 573.996094 C 436.949219 564.023438 412.917969 566.453125 412.917969 566.453125 L 414.453125 366.652344 C 416.242188 281.386719 469.546875 302.480469 492.683594 311.9375 C 512.242188 319.992188 525.28125 323.957031 547.652344 319.097656 L 489.746094 438.109375 C 497.414062 466.359375 522.980469 487.195312 553.660156 487.195312 C 584.339844 487.195312 609.90625 466.359375 617.578125 438.109375 L 558.773438 316.796875 Z M 313.335938 437.980469 L 198.160156 437.980469 L 255.8125 319.609375 Z M 495.753906 437.980469 L 553.277344 319.609375 L 610.929688 437.980469 Z M 495.753906 437.980469 "/><g clip-rule="nonzero" clip-path="url(#a7df034a5a)"><path style=" stroke:none;fill-rule:nonzero;fill:#000000;fill-opacity:1;" d="M 673.566406 485.917969 C 673.566406 485.917969 669.730469 493.078125 665.257812 498.320312 C 665.128906 497.808594 665.003906 497.296875 664.875 496.914062 C 669.730469 484.769531 673.695312 472.242188 676.890625 459.328125 C 679.0625 459.074219 683.921875 458.179688 690.058594 453.960938 C 690.058594 453.960938 712.429688 437.214844 713.578125 424.175781 C 713.578125 424.175781 714.730469 410.882812 720.226562 399.375 C 720.226562 399.375 712.554688 408.195312 700.796875 414.84375 C 700.796875 414.84375 688.394531 426.09375 685.199219 441.175781 C 685.199219 441.175781 682.644531 448.847656 679.0625 454.855469 C 678.808594 454.472656 678.679688 453.960938 678.425781 453.449219 C 681.238281 440.792969 683.15625 427.753906 684.304688 414.460938 C 686.476562 413.820312 691.078125 412.160156 696.320312 407.046875 C 696.320312 407.046875 715.625 386.847656 714.730469 373.808594 C 714.730469 373.808594 713.707031 360.515625 717.285156 348.242188 C 717.285156 348.242188 711.148438 358.214844 700.539062 366.652344 C 700.539062 366.652344 690.058594 379.816406 689.417969 395.15625 C 689.417969 395.15625 688.140625 403.210938 685.582031 409.601562 C 685.199219 409.089844 684.945312 408.582031 684.5625 408.070312 C 684.816406 402.828125 685.328125 397.585938 685.328125 392.21875 C 685.328125 384.421875 684.945312 376.621094 684.304688 368.824219 C 686.351562 367.800781 690.570312 365.375 694.789062 359.621094 C 694.789062 359.621094 710.636719 336.609375 707.570312 323.828125 C 707.570312 323.828125 704.375 310.917969 705.910156 298.261719 C 705.910156 298.261719 701.433594 309 692.359375 319.097656 C 692.359375 319.097656 684.175781 333.796875 686.09375 349.011719 C 686.09375 349.011719 686.09375 357.0625 684.5625 363.839844 C 684.175781 363.457031 683.792969 363.070312 683.539062 362.6875 C 682.132812 349.523438 679.832031 336.609375 676.636719 323.957031 C 678.550781 322.675781 682.386719 319.609375 685.710938 313.089844 C 685.710938 313.089844 697.597656 287.777344 692.613281 275.761719 C 692.613281 275.761719 687.371094 263.492188 686.863281 250.707031 C 686.863281 250.707031 684.304688 262.085938 676.890625 273.460938 C 676.890625 273.460938 671.265625 289.3125 675.484375 304.015625 C 675.484375 304.015625 676.761719 312.066406 676.378906 318.96875 C 675.867188 318.585938 675.484375 318.203125 674.972656 317.820312 C 671.523438 305.164062 667.046875 292.890625 661.933594 281.003906 C 663.46875 279.597656 666.917969 275.761719 669.222656 268.605469 C 669.222656 268.605469 676.890625 241.757812 669.859375 230.636719 C 669.859375 230.636719 662.703125 219.390625 660.144531 206.863281 C 660.144531 206.863281 659.378906 218.496094 654.007812 230.894531 C 654.007812 230.894531 650.941406 247.382812 657.589844 261.316406 C 657.589844 261.316406 660.144531 268.859375 660.910156 275.636719 C 660.273438 275.378906 659.761719 275.125 659.121094 274.742188 C 653.625 262.980469 647.363281 251.730469 640.457031 240.863281 C 641.738281 239.203125 644.550781 234.984375 645.699219 227.441406 C 645.699219 227.441406 648.894531 199.703125 640.203125 189.859375 C 640.203125 189.859375 631.382812 179.890625 626.78125 168 C 626.78125 168 627.929688 179.632812 624.609375 192.800781 C 624.609375 192.800781 624.222656 209.546875 633.042969 222.203125 C 633.042969 222.203125 636.878906 229.359375 638.667969 236.007812 C 638.15625 235.878906 637.519531 235.625 636.878906 235.367188 C 629.59375 224.628906 621.539062 214.402344 612.847656 204.6875 C 613.871094 202.769531 615.914062 198.167969 615.785156 190.625 C 615.785156 190.625 614.382812 162.632812 604.28125 154.449219 C 604.28125 154.449219 593.929688 146.140625 587.410156 135.019531 C 587.410156 135.019531 590.476562 146.269531 589.324219 159.820312 C 589.324219 159.820312 591.753906 176.4375 602.492188 187.429688 C 602.492188 187.429688 607.351562 193.824219 610.289062 200.214844 C 609.777344 200.214844 609.140625 199.957031 608.628906 199.832031 C 599.679688 190.242188 590.09375 181.421875 579.867188 173.113281 C 580.632812 170.941406 581.785156 166.210938 580.378906 159.050781 C 580.378906 159.050781 574.496094 131.695312 563.25 125.175781 C 563.25 125.175781 551.742188 118.65625 543.5625 108.8125 C 543.5625 108.8125 548.292969 119.425781 549.441406 132.972656 C 549.441406 132.972656 554.554688 148.953125 566.828125 158.15625 C 566.828125 158.15625 572.707031 163.78125 576.542969 169.40625 C 576.03125 169.40625 575.390625 169.40625 574.882812 169.40625 C 566.058594 162.632812 556.984375 156.367188 547.269531 150.617188 C 545.734375 147.804688 543.179688 144.097656 538.578125 140.132812 C 538.578125 140.132812 511.605469 117.890625 496.136719 120.191406 C 496.136719 120.191406 470.058594 121.46875 466.097656 120.832031 C 466.097656 120.832031 478.625 127.09375 489.746094 138.984375 C 489.746094 138.984375 504.191406 152.917969 522.726562 152.148438 C 522.726562 152.148438 539.597656 150.871094 547.910156 154.707031 C 555.195312 159.050781 562.097656 163.78125 568.871094 168.894531 C 562.226562 168 555.960938 166.339844 555.960938 166.339844 C 541.261719 160.84375 526.558594 166.082031 526.558594 166.082031 C 513.648438 172.476562 501.632812 174.136719 501.632812 174.136719 C 516.207031 176.4375 526.816406 182.445312 526.816406 182.445312 C 538.578125 188.453125 560.308594 177.332031 560.308594 177.332031 C 564.527344 175.671875 570.277344 174.265625 574.496094 172.984375 C 584.46875 180.785156 593.800781 189.21875 602.621094 198.296875 C 596.355469 196.378906 590.605469 193.695312 590.605469 193.695312 C 577.054688 185.898438 561.585938 188.710938 561.585938 188.710938 C 547.910156 192.929688 535.636719 192.671875 535.636719 192.671875 C 549.570312 197.273438 559.15625 204.945312 559.15625 204.945312 C 569.769531 212.871094 593.03125 205.328125 593.03125 205.328125 C 597.378906 204.433594 603.386719 203.921875 607.734375 203.28125 C 616.296875 212.613281 624.222656 222.457031 631.382812 232.8125 C 625.503906 229.871094 620.261719 226.417969 620.261719 226.417969 C 608.117188 216.449219 592.523438 216.832031 592.523438 216.832031 C 578.332031 218.878906 566.316406 216.578125 566.316406 216.578125 C 579.355469 223.351562 587.535156 232.429688 587.535156 232.429688 C 596.738281 241.886719 620.902344 238.308594 620.902344 238.308594 C 625.246094 238.179688 631.128906 238.5625 635.472656 238.691406 C 642.503906 249.175781 648.894531 260.167969 654.390625 271.542969 C 649.023438 267.710938 644.292969 263.492188 644.292969 263.492188 C 633.9375 251.730469 618.472656 249.558594 618.472656 249.558594 C 604.15625 249.175781 592.648438 245.082031 592.648438 245.082031 C 604.410156 253.902344 611.058594 264.257812 611.058594 264.257812 C 618.597656 275.125 643.015625 275.507812 643.015625 275.507812 C 647.363281 276.019531 652.984375 277.425781 657.332031 278.320312 C 662.574219 289.953125 667.175781 301.839844 670.753906 314.113281 C 666.023438 309.382812 662.0625 304.269531 662.0625 304.269531 C 653.753906 290.976562 638.796875 286.246094 638.796875 286.246094 C 624.609375 283.5625 613.996094 277.550781 613.996094 277.550781 C 624.222656 288.164062 629.082031 299.410156 629.082031 299.410156 C 634.835938 311.300781 658.738281 315.648438 658.738281 315.648438 C 662.957031 316.925781 668.453125 319.226562 672.542969 320.761719 C 675.867188 333.03125 678.296875 345.558594 679.957031 358.34375 C 675.996094 352.972656 672.800781 347.09375 672.800781 347.09375 C 666.792969 332.648438 652.730469 325.617188 652.730469 325.617188 C 639.179688 320.757812 629.722656 313.089844 629.722656 313.089844 C 638.03125 325.234375 640.96875 337.121094 640.96875 337.121094 C 644.675781 349.777344 667.6875 357.957031 667.6875 357.957031 C 671.777344 359.875 676.761719 363.199219 680.726562 365.246094 C 681.621094 374.195312 682.257812 383.269531 682.257812 392.472656 C 682.257812 401.675781 681.875 399.632812 681.75 403.210938 C 678.808594 397.332031 676.636719 391.195312 676.636719 391.195312 C 673.054688 375.984375 660.402344 366.652344 660.402344 366.652344 C 647.871094 359.621094 639.691406 350.542969 639.691406 350.542969 C 645.957031 363.839844 646.976562 376.109375 646.976562 376.109375 C 648.511719 389.277344 669.988281 401.039062 669.988281 401.039062 C 673.695312 403.59375 678.042969 407.558594 681.492188 410.242188 C 680.726562 423.28125 679.320312 436.191406 676.636719 448.589844 C 674.589844 442.074219 673.3125 435.167969 673.3125 435.167969 C 672.160156 419.574219 661.167969 408.324219 661.167969 408.324219 C 649.917969 399.375 643.269531 389.023438 643.269531 389.023438 C 647.234375 403.210938 646.339844 415.355469 646.339844 415.355469 C 645.828125 428.523438 665.003906 443.605469 665.003906 443.605469 C 668.199219 446.800781 672.03125 451.402344 674.972656 454.726562 C 672.03125 467.253906 668.324219 479.398438 663.851562 491.160156 C 662.957031 484.511719 662.828125 477.992188 662.828125 477.992188 C 664.234375 462.398438 655.160156 449.613281 655.160156 449.613281 C 645.570312 438.875 640.714844 427.753906 640.714844 427.753906 C 642.375 442.328125 639.4375 454.214844 639.4375 454.214844 C 636.75 467.128906 653.242188 485.152344 653.242188 485.152344 C 655.925781 488.859375 658.867188 494.101562 661.296875 497.808594 C 656.4375 509.566406 650.683594 520.816406 644.292969 531.683594 C 644.421875 525.035156 645.445312 518.644531 645.445312 518.644531 C 649.40625 503.433594 642.503906 489.371094 642.503906 489.371094 C 634.707031 477.226562 631.765625 465.464844 631.765625 465.464844 C 631 480.167969 626.269531 491.414062 626.269531 491.414062 C 621.539062 503.816406 634.960938 524.140625 634.960938 524.140625 C 637.007812 528.101562 639.050781 533.601562 640.714844 537.691406 C 633.9375 548.683594 626.652344 559.292969 618.597656 569.136719 C 619.878906 562.488281 621.921875 556.097656 621.921875 556.097656 C 628.316406 541.78125 623.710938 526.695312 623.710938 526.695312 C 617.960938 513.53125 616.9375 501.257812 616.9375 501.257812 C 613.871094 515.703125 607.222656 525.929688 607.222656 525.929688 C 600.574219 537.308594 610.417969 559.679688 610.417969 559.679688 C 611.824219 563.894531 612.847656 569.648438 613.996094 573.996094 C 605.6875 583.582031 596.738281 592.53125 587.152344 600.839844 C 589.453125 594.703125 592.394531 588.953125 592.394531 588.953125 C 600.957031 575.914062 598.914062 560.316406 598.914062 560.316406 C 595.460938 546.382812 596.355469 534.238281 596.355469 534.238281 C 590.988281 547.917969 582.804688 557.121094 582.804688 557.121094 C 574.371094 567.347656 580.503906 590.867188 580.503906 590.867188 C 581.144531 595.34375 581.273438 601.351562 581.65625 605.824219 C 571.941406 613.878906 561.585938 621.164062 550.847656 627.8125 C 554.042969 622.058594 558.007812 616.945312 558.007812 616.945312 C 568.617188 605.441406 569.128906 589.71875 569.128906 589.71875 C 567.976562 575.402344 570.917969 563.511719 570.917969 563.511719 C 563.375 576.167969 553.917969 583.839844 553.917969 583.839844 C 543.945312 592.53125 546.246094 616.820312 546.246094 616.820312 C 546.246094 621.292969 545.351562 627.046875 545.097656 631.519531 C 534.101562 638.039062 522.726562 643.917969 510.835938 648.90625 C 515.054688 643.664062 519.785156 638.933594 519.785156 638.933594 C 532.058594 629.21875 535.125 613.878906 535.125 613.878906 C 536.277344 599.5625 541.132812 588.3125 541.132812 588.3125 C 531.671875 599.5625 521.0625 605.570312 521.0625 605.570312 C 509.8125 612.472656 508.152344 636.886719 508.152344 636.886719 C 507.386719 641.234375 505.597656 646.988281 504.574219 651.332031 C 492.8125 655.933594 480.667969 659.640625 468.140625 662.582031 C 473.125 658.109375 478.496094 654.402344 478.496094 654.402344 C 492.171875 646.859375 497.796875 632.160156 497.796875 632.160156 C 501.25 618.226562 507.769531 607.871094 507.769531 607.871094 C 496.648438 617.457031 485.144531 621.675781 485.144531 621.675781 C 472.871094 626.660156 467.375 650.4375 467.375 650.4375 C 465.839844 654.785156 463.15625 660.28125 461.367188 664.371094 C 449.09375 666.929688 436.566406 668.335938 423.785156 669.230469 C 429.40625 665.652344 435.289062 662.839844 435.289062 662.839844 C 449.988281 657.597656 457.914062 644.046875 457.914062 644.046875 C 463.539062 630.878906 471.71875 621.675781 471.71875 621.675781 C 459.191406 629.347656 447.175781 631.648438 447.175781 631.648438 C 434.265625 634.585938 424.933594 657.214844 424.933594 657.214844 C 422.761719 661.175781 419.308594 665.90625 417.007812 669.613281 C 412.917969 669.742188 408.953125 670.253906 404.863281 670.253906 C 400.773438 670.253906 396.8125 669.867188 392.71875 669.613281 C 390.417969 665.90625 386.96875 661.046875 384.792969 657.214844 C 384.792969 657.214844 375.460938 634.714844 362.550781 631.648438 C 362.550781 631.648438 350.535156 629.347656 338.007812 621.675781 C 338.007812 621.675781 346.1875 630.753906 351.8125 644.046875 C 351.8125 644.046875 359.613281 657.597656 374.441406 662.839844 C 374.441406 662.839844 380.320312 665.652344 385.945312 669.230469 C 373.160156 668.335938 360.632812 666.929688 348.363281 664.371094 C 346.699219 660.28125 343.886719 654.785156 342.355469 650.4375 C 342.355469 650.4375 336.730469 626.660156 324.585938 621.675781 C 324.585938 621.675781 313.082031 617.457031 301.960938 607.871094 C 301.960938 607.871094 308.480469 618.226562 311.929688 632.160156 C 311.929688 632.160156 317.425781 646.859375 331.234375 654.402344 C 331.234375 654.402344 336.730469 658.109375 341.585938 662.582031 C 329.058594 659.640625 316.914062 655.808594 305.15625 651.332031 C 304.132812 646.988281 302.34375 641.363281 301.574219 636.886719 C 301.574219 636.886719 299.914062 612.601562 288.664062 605.570312 C 288.664062 605.570312 278.054688 599.5625 268.59375 588.3125 C 268.59375 588.3125 273.453125 599.5625 274.601562 613.878906 C 274.601562 613.878906 277.671875 629.21875 289.941406 638.933594 C 289.941406 638.933594 294.671875 643.664062 298.890625 648.90625 C 287.003906 643.917969 275.625 638.039062 264.632812 631.519531 C 264.25 627.171875 263.480469 621.292969 263.480469 616.820312 C 263.480469 616.820312 265.78125 592.53125 255.8125 583.839844 C 255.8125 583.839844 246.226562 576.167969 238.808594 563.511719 C 238.808594 563.511719 241.75 575.402344 240.601562 589.71875 C 240.601562 589.71875 241.113281 605.441406 251.722656 616.945312 C 251.722656 616.945312 255.554688 622.058594 258.878906 627.8125 C 248.140625 621.039062 237.789062 613.878906 228.074219 605.824219 C 228.457031 601.351562 228.582031 595.34375 229.222656 590.867188 C 229.222656 590.867188 235.359375 567.21875 226.921875 557.121094 C 226.921875 557.121094 218.742188 548.046875 213.371094 534.238281 C 213.371094 534.238281 214.394531 546.382812 210.816406 560.316406 C 210.816406 560.316406 208.769531 575.914062 217.335938 588.953125 C 217.335938 588.953125 220.273438 594.574219 222.574219 600.839844 C 212.988281 592.53125 204.039062 583.453125 195.730469 573.996094 C 196.753906 569.777344 197.902344 563.894531 199.308594 559.679688 C 199.308594 559.679688 209.28125 537.433594 202.507812 525.929688 C 202.507812 525.929688 195.859375 515.574219 192.789062 501.257812 C 192.789062 501.257812 191.769531 513.402344 186.015625 526.695312 C 186.015625 526.695312 181.542969 541.78125 187.804688 556.097656 C 187.804688 556.097656 189.851562 562.488281 191.128906 569.136719 C 182.949219 559.292969 175.660156 548.683594 169.015625 537.691406 C 170.804688 533.601562 172.847656 528.101562 174.765625 524.140625 C 174.765625 524.140625 188.1875 503.6875 183.460938 491.414062 C 183.460938 491.414062 178.601562 480.167969 177.960938 465.464844 C 177.960938 465.464844 175.023438 477.355469 167.222656 489.371094 C 167.222656 489.371094 160.320312 503.433594 164.285156 518.644531 C 164.285156 518.644531 165.308594 525.035156 165.433594 531.683594 C 159.042969 520.816406 153.289062 509.566406 148.433594 497.808594 C 150.863281 494.101562 153.800781 488.730469 156.488281 485.152344 C 156.488281 485.152344 172.976562 467.253906 170.292969 454.214844 C 170.292969 454.214844 167.351562 442.328125 169.015625 427.753906 C 169.015625 427.753906 164.15625 439.003906 154.570312 449.613281 C 154.570312 449.613281 145.492188 462.398438 146.898438 477.992188 C 146.898438 477.992188 146.898438 484.511719 145.875 491.160156 C 141.402344 479.398438 137.566406 467.253906 134.753906 454.726562 C 137.695312 451.402344 141.53125 446.800781 144.726562 443.605469 C 144.726562 443.605469 163.902344 428.523438 163.390625 415.355469 C 163.390625 415.355469 162.367188 403.210938 166.457031 389.023438 C 166.457031 389.023438 159.808594 399.375 148.5625 408.324219 C 148.5625 408.324219 137.566406 419.445312 136.417969 435.167969 C 136.417969 435.167969 135.265625 442.074219 133.09375 448.589844 C 130.535156 436.0625 129.128906 423.28125 128.234375 410.242188 C 131.6875 407.429688 136.035156 403.59375 139.742188 401.039062 C 139.742188 401.039062 161.089844 389.277344 162.75 376.109375 C 162.75 376.109375 163.773438 363.96875 170.035156 350.542969 C 170.035156 350.542969 161.855469 359.621094 149.328125 366.652344 C 149.328125 366.652344 136.671875 375.855469 133.09375 391.195312 C 133.09375 391.195312 130.921875 397.332031 127.980469 403.210938 C 127.851562 399.632812 127.46875 396.054688 127.46875 392.472656 C 127.46875 383.269531 128.109375 374.195312 128.875 365.246094 C 132.710938 363.070312 137.824219 359.875 141.914062 357.832031 C 141.914062 357.832031 164.921875 349.648438 168.628906 336.996094 C 168.628906 336.996094 171.570312 325.105469 179.878906 312.960938 C 179.878906 312.960938 170.292969 320.632812 156.871094 325.488281 C 156.871094 325.488281 142.808594 332.519531 136.800781 346.964844 C 136.800781 346.964844 133.605469 352.84375 129.640625 358.34375 C 131.175781 345.558594 133.605469 333.03125 136.800781 320.757812 C 141.019531 319.226562 146.644531 316.796875 150.988281 315.519531 C 150.988281 315.519531 175.023438 311.171875 180.648438 299.285156 C 180.648438 299.285156 185.503906 288.035156 195.730469 277.425781 C 195.730469 277.425781 185.121094 283.433594 170.929688 286.117188 C 170.929688 286.117188 155.976562 290.847656 147.667969 304.140625 C 147.667969 304.140625 143.449219 309.636719 138.460938 314.496094 C 142.042969 302.097656 146.515625 290.078125 151.757812 278.449219 C 156.101562 277.679688 162.109375 276.144531 166.714844 275.636719 C 166.714844 275.636719 191.128906 275.25 198.671875 264.386719 C 198.671875 264.386719 205.320312 254.03125 217.078125 245.210938 C 217.078125 245.210938 205.574219 249.429688 191.257812 249.683594 C 191.257812 249.683594 175.789062 251.859375 165.433594 263.617188 C 165.433594 263.617188 160.195312 268.476562 154.441406 272.4375 C 159.9375 260.804688 166.328125 249.558594 173.488281 238.945312 C 177.960938 238.945312 184.226562 238.308594 188.957031 238.5625 C 188.957031 238.5625 213.117188 242.144531 222.320312 232.683594 C 222.320312 232.683594 230.5 223.605469 243.539062 216.832031 C 243.539062 216.832031 231.523438 219.132812 217.335938 217.089844 C 217.335938 217.089844 201.609375 216.832031 189.59375 226.675781 C 189.59375 226.675781 183.585938 230.636719 177.324219 233.578125 C 184.738281 222.96875 192.789062 212.871094 201.484375 203.410156 C 205.828125 204.050781 212.222656 204.558594 216.824219 205.457031 C 216.824219 205.457031 240.089844 212.871094 250.699219 205.070312 C 250.699219 205.070312 260.285156 197.402344 274.21875 192.800781 C 274.21875 192.800781 261.949219 193.054688 248.269531 188.835938 C 248.269531 188.835938 232.800781 186.023438 219.253906 193.824219 C 219.253906 193.824219 212.859375 196.761719 206.214844 198.679688 C 215.160156 189.476562 224.75 180.910156 234.976562 172.984375 C 239.195312 174.390625 245.203125 175.796875 249.546875 177.460938 C 249.546875 177.460938 271.28125 188.582031 283.039062 182.574219 C 283.039062 182.574219 293.652344 176.566406 308.222656 174.265625 C 308.222656 174.265625 296.078125 172.601562 283.296875 166.210938 C 283.296875 166.210938 268.46875 160.96875 253.894531 166.464844 C 253.894531 166.464844 247.246094 168.257812 240.34375 169.152344 C 246.863281 164.292969 253.640625 159.820312 260.667969 155.472656 C 268.339844 150.871094 287.132812 152.40625 287.132812 152.40625 C 305.539062 153.171875 320.113281 139.238281 320.113281 139.238281 C 331.359375 127.351562 343.761719 121.085938 343.761719 121.085938 C 339.796875 121.597656 313.71875 120.445312 313.71875 120.445312 C 298.125 118.019531 271.28125 140.390625 271.28125 140.390625 C 266.933594 144.097656 264.375 147.675781 262.84375 150.488281 C 252.871094 156.367188 243.539062 162.757812 234.464844 169.664062 C 234.082031 169.664062 233.695312 169.664062 233.3125 169.664062 C 237.277344 163.910156 243.027344 158.414062 243.027344 158.414062 C 255.429688 149.335938 260.414062 133.230469 260.414062 133.230469 C 261.4375 119.679688 266.292969 109.070312 266.292969 109.070312 C 258.113281 118.914062 246.609375 125.433594 246.609375 125.433594 C 235.359375 131.953125 229.480469 159.308594 229.480469 159.308594 C 228.199219 166.210938 229.222656 170.8125 229.988281 172.984375 C 219.507812 181.421875 209.664062 190.5 200.460938 200.214844 C 200.207031 200.214844 199.820312 200.214844 199.566406 200.34375 C 202.507812 194.078125 207.363281 187.558594 207.363281 187.558594 C 218.101562 176.566406 220.53125 159.945312 220.53125 159.945312 C 219.378906 146.398438 222.449219 135.148438 222.449219 135.148438 C 215.929688 146.140625 205.574219 154.578125 205.574219 154.578125 C 195.476562 162.886719 194.070312 190.753906 194.070312 190.753906 C 194.070312 197.65625 195.601562 202.003906 196.753906 204.175781 C 187.675781 214.148438 179.367188 224.757812 171.953125 235.878906 C 171.699219 235.878906 171.441406 236.007812 171.1875 236.136719 C 173.105469 229.488281 176.8125 222.328125 176.8125 222.328125 C 185.632812 209.671875 185.25 192.925781 185.25 192.925781 C 181.925781 179.761719 183.074219 168.128906 183.074219 168.128906 C 178.472656 180.015625 169.652344 189.988281 169.652344 189.988281 C 161.089844 199.832031 164.15625 227.570312 164.15625 227.570312 C 165.179688 234.472656 167.609375 238.5625 169.015625 240.480469 C 161.855469 251.601562 155.464844 263.234375 149.96875 275.378906 C 149.582031 275.507812 149.328125 275.761719 148.945312 275.890625 C 149.710938 269.117188 152.269531 261.574219 152.269531 261.574219 C 158.914062 247.769531 155.847656 231.148438 155.847656 231.148438 C 150.480469 218.75 149.710938 207.117188 149.710938 207.117188 C 147.15625 219.644531 139.996094 230.894531 139.996094 230.894531 C 133.09375 242.015625 140.636719 268.859375 140.636719 268.859375 C 142.808594 275.636719 145.875 279.214844 147.539062 280.875 C 142.296875 293.019531 137.949219 305.546875 134.5 318.457031 C 134.117188 318.714844 133.859375 318.96875 133.476562 319.226562 C 133.09375 312.324219 134.371094 304.269531 134.371094 304.269531 C 138.71875 289.570312 132.964844 273.71875 132.964844 273.71875 C 125.550781 262.339844 122.996094 250.964844 122.996094 250.964844 C 122.484375 263.746094 117.242188 276.019531 117.242188 276.019531 C 112.257812 288.035156 124.144531 313.34375 124.144531 313.34375 C 127.339844 319.738281 131.046875 322.804688 132.964844 324.082031 C 129.769531 336.738281 127.597656 349.777344 126.191406 363.070312 C 125.808594 363.457031 125.550781 363.839844 125.167969 364.09375 C 123.632812 357.320312 123.632812 349.265625 123.632812 349.265625 C 125.550781 334.054688 117.371094 319.355469 117.371094 319.355469 C 108.292969 309.253906 103.820312 298.515625 103.820312 298.515625 C 105.355469 311.171875 102.15625 324.082031 102.15625 324.082031 C 99.089844 336.867188 114.941406 359.875 114.941406 359.875 C 119.160156 365.628906 123.25 368.058594 125.421875 369.082031 C 124.785156 376.75 124.402344 384.546875 124.402344 392.472656 C 124.402344 400.398438 124.914062 403.082031 125.167969 408.324219 C 124.785156 408.835938 124.527344 409.347656 124.144531 409.859375 C 121.589844 403.46875 120.308594 395.414062 120.308594 395.414062 C 119.671875 380.074219 109.1875 366.90625 109.1875 366.90625 C 98.578125 358.46875 92.441406 348.5 92.441406 348.5 C 96.023438 360.769531 95 374.066406 95 374.066406 C 94.105469 387.105469 113.40625 407.300781 113.40625 407.300781 C 118.648438 412.414062 123.25 414.203125 125.421875 414.714844 C 126.445312 428.011719 128.363281 441.050781 131.304688 453.703125 C 131.046875 454.214844 130.921875 454.601562 130.664062 455.109375 C 127.085938 449.101562 124.527344 441.433594 124.527344 441.433594 C 121.460938 426.347656 108.933594 415.101562 108.933594 415.101562 C 97.042969 408.453125 89.503906 399.632812 89.503906 399.632812 C 95 411.136719 96.148438 424.429688 96.148438 424.429688 C 97.300781 437.46875 119.671875 454.214844 119.671875 454.214844 C 125.679688 458.433594 130.535156 459.457031 132.835938 459.585938 C 136.035156 472.496094 139.996094 485.023438 144.855469 497.167969 C 144.855469 497.679688 144.597656 498.191406 144.46875 498.574219 C 139.996094 493.332031 136.160156 486.175781 136.160156 486.175781 C 130.664062 471.855469 116.601562 462.652344 116.601562 462.652344 C 103.820312 458.050781 94.871094 450.507812 94.871094 450.507812 C 102.15625 460.992188 105.480469 473.902344 105.480469 473.902344 C 108.804688 486.558594 133.605469 499.46875 133.605469 499.46875 C 140.125 502.535156 144.855469 502.792969 147.15625 502.664062 C 152.394531 514.808594 158.53125 526.3125 165.308594 537.433594 C 165.308594 538.074219 165.308594 538.714844 165.179688 539.226562 C 159.9375 534.75 154.953125 528.359375 154.953125 528.359375 C 147.15625 515.0625 131.816406 508.289062 131.816406 508.289062 C 118.519531 505.734375 108.421875 499.851562 108.421875 499.851562 C 117.371094 509.054688 122.609375 521.199219 122.609375 521.199219 C 127.851562 533.089844 154.441406 541.910156 154.441406 541.910156 C 161.601562 543.953125 166.457031 543.316406 168.628906 542.804688 C 175.660156 553.796875 183.460938 564.40625 191.894531 574.25 C 191.894531 574.890625 191.894531 575.402344 192.023438 575.914062 C 186.015625 572.332031 180.136719 566.835938 180.136719 566.835938 C 170.292969 554.949219 154.058594 550.855469 154.058594 550.855469 C 140.507812 550.601562 129.640625 546.382812 129.640625 546.382812 C 139.867188 554.054688 147.15625 565.175781 147.15625 565.175781 C 154.3125 576.167969 181.925781 580.515625 181.925781 580.515625 C 189.339844 581.410156 194.195312 579.875 196.242188 579.109375 C 204.933594 588.824219 214.265625 598.15625 224.238281 606.59375 C 224.238281 607.101562 224.492188 607.613281 224.621094 608.125 C 218.230469 605.570312 211.453125 600.96875 211.453125 600.96875 C 199.820312 590.867188 183.074219 589.335938 183.074219 589.335938 C 169.652344 591.253906 158.277344 588.824219 158.277344 588.824219 C 169.652344 594.703125 178.601562 604.546875 178.601562 604.546875 C 187.421875 614.132812 215.417969 614.007812 215.417969 614.007812 C 222.703125 613.75 227.179688 611.578125 229.09375 610.425781 C 239.195312 618.609375 250.058594 625.894531 261.308594 632.667969 C 261.566406 633.179688 261.820312 633.820312 262.074219 634.332031 C 255.300781 632.796875 248.015625 629.472656 248.015625 629.472656 C 234.976562 621.421875 218.230469 622.699219 218.230469 622.699219 C 205.320312 626.789062 193.558594 626.277344 193.558594 626.277344 C 205.703125 630.242188 216.183594 638.550781 216.183594 638.550781 C 226.410156 646.605469 254.023438 642 254.023438 642 C 261.179688 640.59375 265.273438 637.65625 266.933594 636.25 C 278.183594 642.640625 290.070312 648.265625 302.214844 653.125 C 302.472656 653.632812 302.726562 654.019531 302.980469 654.527344 C 296.078125 654.144531 288.539062 651.972656 288.539062 651.972656 C 274.347656 646.09375 257.984375 650.054688 257.984375 650.054688 C 245.839844 656.191406 234.207031 657.46875 234.207031 657.46875 C 246.863281 659.386719 258.496094 665.90625 258.496094 665.90625 C 270 672.171875 296.460938 663.09375 296.460938 663.09375 C 303.367188 660.410156 306.945312 656.957031 308.351562 655.296875 C 320.621094 659.898438 333.277344 663.734375 346.1875 666.546875 C 346.445312 666.929688 346.828125 667.183594 347.085938 667.566406 C 340.179688 668.335938 332.128906 667.441406 332.128906 667.441406 C 317.171875 663.988281 301.703125 670.507812 301.703125 670.507812 C 290.710938 678.433594 279.460938 681.757812 279.460938 681.757812 C 292.246094 681.628906 304.773438 686.105469 304.773438 686.105469 C 317.042969 690.449219 341.714844 677.285156 341.714844 677.285156 C 347.980469 673.703125 350.792969 669.742188 352.070312 667.824219 C 364.726562 670.253906 377.765625 671.660156 391.058594 672.296875 C 391.570312 672.679688 392.082031 673.066406 392.464844 673.449219 C 385.816406 675.367188 377.636719 675.75 377.636719 675.75 C 362.296875 674.726562 348.105469 683.675781 348.105469 683.675781 C 338.519531 693.261719 328.039062 698.375 328.039062 698.375 C 340.691406 696.203125 353.730469 698.632812 353.730469 698.632812 C 366.644531 700.933594 388.757812 683.929688 388.757812 683.929688 C 394.511719 679.199219 396.683594 674.855469 397.449219 672.679688 C 400.132812 672.679688 402.691406 673.066406 405.375 673.066406 C 408.058594 673.066406 410.617188 672.679688 413.300781 672.679688 C 414.066406 674.726562 416.371094 679.199219 421.992188 683.929688 C 421.992188 683.929688 444.109375 700.933594 457.019531 698.632812 C 457.019531 698.632812 470.058594 696.203125 482.714844 698.375 C 482.714844 698.375 472.230469 693.390625 462.644531 683.675781 C 462.644531 683.675781 448.453125 674.726562 433.113281 675.75 C 433.113281 675.75 425.0625 675.367188 418.285156 673.449219 C 418.671875 673.066406 419.179688 672.679688 419.691406 672.296875 C 432.988281 671.660156 446.027344 670.253906 458.679688 667.824219 C 459.832031 669.742188 462.773438 673.703125 469.035156 677.285156 C 469.035156 677.285156 493.707031 690.578125 505.980469 686.105469 C 505.980469 686.105469 518.507812 681.5 531.289062 681.757812 C 531.289062 681.757812 520.039062 678.5625 509.046875 670.507812 C 509.046875 670.507812 493.578125 663.988281 478.625 667.441406 C 478.625 667.441406 470.570312 668.335938 463.667969 667.566406 C 463.921875 667.183594 464.304688 666.929688 464.5625 666.546875 C 477.601562 663.734375 490.128906 659.898438 502.398438 655.296875 C 503.804688 656.957031 507.386719 660.539062 514.289062 663.09375 C 514.289062 663.09375 540.75 672.171875 552.253906 665.90625 C 552.253906 665.90625 563.886719 659.386719 576.542969 657.46875 C 576.542969 657.46875 564.910156 656.0625 552.765625 650.054688 C 552.765625 650.054688 536.402344 646.09375 522.214844 651.972656 C 522.214844 651.972656 514.542969 654.144531 507.769531 654.527344 C 508.023438 654.019531 508.28125 653.632812 508.535156 653.125 C 520.679688 648.265625 532.570312 642.640625 543.816406 636.25 C 545.480469 637.65625 549.570312 640.59375 556.730469 642 C 556.730469 642 584.339844 646.730469 594.566406 638.550781 C 594.566406 638.550781 604.921875 630.242188 617.195312 626.277344 C 617.195312 626.277344 605.5625 626.789062 592.523438 622.699219 C 592.523438 622.699219 575.777344 621.421875 562.738281 629.472656 C 562.738281 629.472656 555.449219 632.796875 548.675781 634.332031 C 548.929688 633.820312 549.1875 633.179688 549.441406 632.667969 C 560.691406 625.894531 571.429688 618.609375 581.65625 610.425781 C 583.574219 611.578125 588.046875 613.75 595.335938 614.007812 C 595.335938 614.007812 623.328125 614.132812 632.148438 604.546875 C 632.148438 604.546875 641.097656 594.703125 652.476562 588.824219 C 652.476562 588.824219 641.097656 591.253906 627.675781 589.335938 C 627.675781 589.335938 610.929688 590.867188 599.296875 600.96875 C 599.296875 600.96875 592.648438 605.441406 586.128906 608.125 C 586.128906 607.613281 586.386719 607.105469 586.515625 606.59375 C 596.484375 598.15625 605.816406 588.953125 614.507812 579.109375 C 616.554688 580.003906 621.285156 581.410156 628.824219 580.515625 C 628.824219 580.515625 656.4375 576.167969 663.597656 565.175781 C 663.597656 565.175781 670.753906 554.054688 681.109375 546.382812 C 681.109375 546.382812 670.242188 550.601562 656.695312 550.855469 C 656.695312 550.855469 640.457031 555.074219 630.617188 566.835938 C 630.617188 566.835938 624.734375 572.332031 618.726562 575.914062 C 618.726562 575.402344 618.726562 574.761719 618.855469 574.25 C 627.292969 564.28125 635.089844 553.796875 642.121094 542.804688 C 644.292969 543.316406 649.152344 543.953125 656.308594 541.910156 C 656.308594 541.910156 682.898438 533.089844 688.140625 521.199219 C 688.140625 521.199219 693.382812 509.054688 702.328125 499.851562 C 702.328125 499.851562 692.230469 505.734375 678.9375 508.289062 C 678.9375 508.289062 663.597656 515.0625 655.796875 528.359375 C 655.796875 528.359375 650.941406 534.75 645.570312 539.226562 C 645.570312 538.585938 645.570312 537.945312 645.445312 537.433594 C 652.21875 526.3125 658.484375 514.808594 663.597656 502.664062 C 665.898438 502.664062 670.753906 502.664062 677.148438 499.46875 C 677.148438 499.46875 701.945312 486.558594 705.269531 473.902344 C 705.269531 473.902344 708.464844 460.992188 715.878906 450.507812 C 715.878906 450.507812 706.929688 457.921875 694.148438 462.652344 C 694.148438 462.652344 680.085938 471.855469 674.589844 486.175781 Z M 611.3125 202.644531 Z M 639.308594 238.5625 C 639.308594 238.691406 639.308594 238.820312 639.308594 238.945312 C 639.308594 238.945312 639.179688 238.691406 639.050781 238.5625 C 639.050781 238.5625 639.050781 238.5625 639.179688 238.5625 Z M 661.296875 278.574219 C 661.296875 278.832031 661.296875 278.957031 661.296875 279.214844 C 661.296875 278.957031 661.039062 278.703125 661.039062 278.574219 C 661.039062 278.574219 661.296875 278.574219 661.296875 278.574219 Z M 676.25 321.65625 C 676.25 321.65625 676.25 321.910156 676.25 321.910156 C 676.25 321.910156 676.25 321.65625 676.25 321.527344 C 676.25 321.527344 676.25 321.527344 676.378906 321.527344 Z M 684.5625 412.03125 C 684.5625 412.03125 684.5625 412.160156 684.433594 412.289062 C 684.433594 412.289062 684.433594 412.03125 684.433594 412.03125 Z M 677.65625 457.027344 C 677.65625 457.027344 677.65625 457.027344 677.53125 457.15625 C 677.53125 457.15625 677.53125 457.027344 677.53125 456.902344 Z M 124.785156 412.03125 C 124.785156 412.03125 124.785156 412.289062 124.785156 412.289062 C 124.785156 412.289062 124.785156 412.160156 124.785156 412.03125 Z M 131.6875 457.027344 C 131.6875 457.027344 131.6875 457.15625 131.6875 457.285156 C 131.6875 457.285156 131.6875 457.285156 131.558594 457.15625 Z M 166.839844 540.632812 Z M 194.070312 577.191406 C 194.070312 577.191406 194.070312 577.191406 193.941406 577.191406 Z M 305.410156 654.527344 C 305.410156 654.527344 305.410156 654.527344 305.410156 654.402344 C 305.410156 654.402344 305.667969 654.402344 305.792969 654.402344 C 305.792969 654.402344 305.539062 654.402344 305.539062 654.402344 Z M 394.382812 672.554688 C 394.382812 672.554688 394.382812 672.554688 394.382812 672.425781 C 394.511719 672.425781 394.636719 672.425781 394.765625 672.425781 C 394.765625 672.425781 394.511719 672.425781 394.382812 672.554688 Z M 414.964844 672.554688 C 414.964844 672.554688 414.707031 672.554688 414.578125 672.425781 C 414.707031 672.425781 414.835938 672.425781 414.964844 672.425781 C 414.964844 672.425781 414.964844 672.425781 414.964844 672.554688 Z M 503.933594 654.527344 C 503.933594 654.527344 503.679688 654.527344 503.679688 654.527344 C 503.679688 654.527344 503.933594 654.527344 504.0625 654.527344 C 504.0625 654.527344 504.0625 654.527344 504.0625 654.65625 Z M 615.277344 577.191406 C 615.277344 577.191406 615.277344 577.191406 615.148438 577.191406 C 615.148438 577.191406 615.148438 577.191406 615.148438 577.0625 Z M 642.503906 540.632812 Z M 642.503906 540.632812 "/></g></g></svg>