<svg xmlns="http://www.w3.org/2000/svg" xmlns:xlink="http://www.w3.org/1999/xlink" width="1080" zoomAndPan="magnify" viewBox="0 0 810 809.999993" height="1080" preserveAspectRatio="xMidYMid meet" version="1.2"><defs><filter x="0%" y="0%" width="100%" filterUnits="objectBoundingBox" id="e67656a5d2" height="100%"><feColorMatrix values="0 0 0 0 1 0 0 0 0 1 0 0 0 0 1 0 0 0 1 0" type="matrix" in="SourceGraphic"/></filter><clipPath id="28914829a0"><path d="M 124 160 L 191 160 L 191 203.761719 L 124 203.761719 Z M 124 160 "/></clipPath><clipPath id="2915ab78ec"><rect x="0" width="197" y="0" height="204"/></clipPath></defs><g id="9cb46e1e19"><path style=" stroke:none;fill-rule:nonzero;fill:#fba574;fill-opacity:1;" d="M 683.085938 621.167969 L 632.09375 663.757812 L 527.640625 577.503906 L 444.382812 503.464844 C 438.3125 498.085938 430.527344 495.113281 422.429688 495.113281 L 411.800781 495.113281 C 408.449219 495.113281 405.160156 495.683594 401.996094 496.632812 C 394.277344 498.972656 387.699219 504.226562 383.394531 511.25 C 375.613281 523.90625 368.210938 532.511719 361.316406 536.816406 C 341.132812 553.902344 315.765625 558.265625 299.503906 547.445312 C 292.101562 542.511719 283.246094 532.132812 282.867188 519.160156 C 282.550781 507.894531 288.75 499.667969 291.722656 495.683594 C 302.289062 481.632812 310.195312 463.027344 315.699219 439.996094 C 316.839844 435.375 334.113281 419.746094 337.273438 416.328125 C 337.273438 416.328125 376.308594 383.738281 392.191406 378.613281 C 405.792969 374.117188 449.636719 376.714844 449.636719 376.714844 C 455.011719 376.460938 460.453125 377.664062 465.324219 380.066406 L 493.542969 394.242188 C 516.761719 405.949219 542.257812 412.339844 568.195312 413.035156 L 597.234375 413.859375 Z M 683.085938 621.167969 "/><path style=" stroke:none;fill-rule:nonzero;fill:#000000;fill-opacity:0.3;" d="M 398.328125 377.15625 C 380.550781 388.421875 358.027344 407.214844 358.027344 407.214844 C 354.863281 410.695312 337.589844 426.324219 336.453125 430.882812 C 330.949219 453.917969 323.039062 472.519531 312.472656 486.570312 C 309.5 490.554688 303.300781 498.78125 303.617188 510.046875 C 303.996094 523.019531 312.855469 533.398438 320.257812 538.332031 C 329.238281 544.28125 340.816406 545.675781 352.902344 542.890625 C 334.429688 554.785156 313.488281 556.75 299.378906 547.382812 C 291.976562 542.445312 283.117188 532.070312 282.738281 519.097656 C 282.421875 507.832031 288.625 499.605469 291.597656 495.617188 C 302.160156 481.570312 310.070312 462.964844 315.574219 439.929688 C 316.714844 435.3125 333.984375 419.679688 337.148438 416.265625 C 337.148438 416.265625 376.183594 383.675781 392.0625 378.546875 C 393.835938 377.980469 395.921875 377.535156 398.328125 377.15625 Z M 398.328125 377.15625 "/><path style=" stroke:none;fill-rule:nonzero;fill:#000000;fill-opacity:1;" d="M 632.09375 666.792969 C 631.398438 666.792969 630.703125 666.542969 630.195312 666.097656 L 525.679688 579.847656 L 442.359375 505.742188 C 436.855469 500.871094 429.769531 498.148438 422.367188 498.148438 L 411.738281 498.148438 C 408.765625 498.148438 405.792969 498.59375 402.820312 499.542969 C 395.859375 501.695312 389.847656 506.375 385.925781 512.832031 C 377.953125 525.867188 370.171875 534.789062 362.835938 539.410156 C 342.019531 557.066406 315.132812 561.558594 297.734375 549.976562 C 289.699219 544.535156 280.144531 533.269531 279.703125 519.222656 C 279.386719 507.007812 285.902344 498.148438 289.066406 493.910156 C 299.25 480.304688 307.160156 461.953125 312.601562 439.234375 C 313.488281 435.566406 319.308594 429.425781 330.441406 418.605469 C 332.464844 416.644531 334.113281 415.0625 334.871094 414.175781 C 336.769531 412.53125 374.855469 380.890625 391.113281 375.574219 C 405.097656 370.953125 447.863281 373.421875 449.699219 373.550781 C 455.203125 373.359375 461.148438 374.625 466.589844 377.28125 L 494.871094 391.519531 C 517.519531 402.910156 542.890625 409.304688 568.257812 410 L 597.296875 410.820312 C 598.5 410.886719 599.578125 411.582031 600.019531 412.71875 L 685.871094 620.15625 C 686.378906 621.359375 686.0625 622.8125 684.984375 623.636719 L 633.992188 666.226562 C 633.488281 666.542969 632.789062 666.792969 632.09375 666.792969 Z M 411.800781 492.136719 L 422.429688 492.136719 C 431.289062 492.136719 439.828125 495.367188 446.410156 501.25 L 529.667969 575.289062 L 632.09375 659.898438 L 679.417969 620.347656 L 595.148438 416.769531 L 568.070312 416.011719 C 541.8125 415.316406 515.558594 408.671875 492.085938 396.898438 L 463.871094 382.726562 C 459.378906 380.574219 454.507812 379.496094 449.699219 379.6875 C 448.941406 379.6875 405.980469 377.15625 393.011719 381.394531 C 377.890625 386.332031 339.488281 418.289062 339.046875 418.605469 C 338.539062 419.238281 336.832031 420.882812 334.679688 422.972656 C 330.503906 427.085938 319.308594 437.90625 318.484375 440.691406 C 312.855469 464.167969 304.628906 483.214844 294 497.453125 C 290.964844 501.503906 285.460938 508.90625 285.777344 519.03125 C 286.09375 530.738281 294.253906 540.296875 301.085938 544.914062 C 316.207031 554.976562 340.121094 550.738281 359.292969 534.535156 C 366.1875 530.234375 373.273438 521.945312 380.738281 509.730469 C 385.421875 502.074219 392.632812 496.378906 401.046875 493.847656 C 404.652344 492.644531 408.195312 492.136719 411.800781 492.136719 Z M 411.800781 492.136719 "/><path style=" stroke:none;fill-rule:nonzero;fill:#f18e5c;fill-opacity:1;" d="M 644.304688 691.410156 C 644.304688 701.472656 640.320312 710.902344 633.234375 717.988281 C 625.957031 725.328125 616.277344 729 606.660156 729 C 597.742188 729 588.949219 725.835938 581.863281 719.632812 L 581.796875 719.632812 C 581.230469 728.746094 577.433594 737.289062 570.917969 743.746094 C 563.578125 751.085938 553.960938 754.753906 544.34375 754.753906 C 534.726562 754.753906 525.113281 751.085938 517.773438 743.746094 L 516.570312 742.542969 C 515.9375 751.65625 512.140625 760.070312 505.6875 766.527344 C 498.351562 773.867188 488.734375 777.535156 479.117188 777.535156 C 471.714844 777.535156 464.3125 775.320312 457.921875 770.957031 C 457.542969 780.066406 453.9375 788.992188 447.042969 795.824219 C 439.957031 802.976562 430.527344 806.898438 420.40625 806.898438 C 410.410156 806.898438 400.984375 802.976562 393.898438 795.824219 L 368.84375 771.273438 C 374.726562 764.753906 377.890625 756.148438 377.449219 747.289062 C 377.070312 738.300781 373.148438 730.011719 366.566406 723.9375 C 360.9375 718.75 353.789062 715.648438 346.195312 715.140625 C 350.6875 709.003906 352.839844 701.664062 352.585938 693.941406 C 352.140625 684.957031 348.347656 676.601562 341.703125 670.589844 C 335.125 664.515625 326.519531 661.414062 317.472656 661.796875 C 312.347656 662.046875 307.351562 663.378906 302.921875 665.84375 C 302.226562 657.808594 298.621094 649.960938 292.230469 644.011719 C 282.488281 635.089844 268.757812 633.003906 257.179688 637.621094 C 256.988281 628.824219 253.320312 620.03125 246.363281 613.703125 C 232.757812 601.109375 211.3125 602.058594 198.847656 615.726562 L 180.25 636.101562 L 176.390625 640.34375 C 172.59375 644.457031 169.9375 649.390625 168.605469 654.707031 L 122.105469 628.507812 C 140.832031 599.84375 163.417969 558.457031 175.3125 526.4375 C 188.726562 490.429688 193.851562 439.613281 198.027344 401.519531 L 337.464844 416.199219 C 334.300781 419.679688 317.03125 435.3125 315.890625 439.867188 C 310.386719 462.902344 302.476562 481.507812 291.914062 495.554688 C 288.941406 499.542969 282.738281 507.769531 283.054688 519.03125 C 283.433594 532.003906 292.292969 542.382812 299.695312 547.320312 C 315.953125 558.140625 341.386719 553.773438 361.503906 536.6875 C 368.402344 532.386719 375.867188 523.777344 383.585938 511.121094 C 387.886719 504.097656 394.46875 498.910156 402.1875 496.503906 C 405.347656 495.554688 408.640625 494.984375 411.992188 494.984375 L 422.621094 494.984375 C 430.71875 494.984375 438.5625 497.960938 444.574219 503.339844 L 527.832031 577.378906 L 632.285156 663.628906 L 633.359375 664.707031 C 640.257812 671.921875 644.304688 681.347656 644.304688 691.410156 Z M 644.304688 691.410156 "/><path style=" stroke:none;fill-rule:nonzero;fill:#000000;fill-opacity:0.3;" d="M 197.710938 401.582031 L 217.828125 403.734375 C 213.84375 440.058594 208.464844 484.417969 196.445312 516.753906 C 188.597656 537.699219 176.261719 562.761719 163.355469 585.542969 C 152.789062 604.210938 159.308594 627.875 177.96875 638.382812 L 176.074219 640.40625 C 172.277344 644.519531 169.621094 649.457031 168.289062 654.769531 L 121.789062 628.574219 C 140.515625 599.90625 163.101562 558.519531 174.996094 526.5 C 188.410156 490.492188 193.535156 439.679688 197.710938 401.582031 Z M 197.710938 401.582031 "/><path style=" stroke:none;fill-rule:nonzero;fill:#000000;fill-opacity:0.3;" d="M 441.726562 797.21875 C 443.054688 797.21875 444.382812 797.152344 445.714844 796.964844 C 438.816406 803.417969 429.832031 806.960938 420.28125 806.960938 C 410.285156 806.960938 400.855469 803.039062 393.769531 795.886719 L 368.71875 771.335938 C 374.601562 764.816406 377.765625 756.210938 377.320312 747.351562 C 376.941406 738.367188 373.019531 730.074219 366.441406 724 C 360.808594 718.8125 353.660156 715.710938 346.070312 715.203125 C 350.5625 709.066406 352.710938 701.726562 352.457031 694.003906 C 352.015625 685.019531 348.21875 676.667969 341.578125 670.65625 C 334.996094 664.578125 326.394531 661.480469 317.347656 661.859375 C 312.222656 662.113281 307.222656 663.441406 302.792969 665.910156 C 302.097656 657.871094 298.492188 650.023438 292.101562 644.078125 C 282.359375 635.152344 268.632812 633.066406 257.054688 637.683594 C 256.863281 628.890625 253.195312 620.09375 246.234375 613.765625 C 239.148438 607.246094 229.976562 604.335938 221.117188 605.03125 C 233.707031 592.3125 254.394531 591.679688 267.683594 604.019531 C 274.640625 610.410156 278.3125 619.144531 278.5 627.941406 C 290.078125 623.320312 303.808594 625.472656 313.550781 634.332031 C 319.941406 640.28125 323.546875 648.0625 324.242188 656.164062 C 328.671875 653.695312 333.605469 652.367188 338.792969 652.113281 C 347.839844 651.734375 356.445312 654.835938 363.023438 660.910156 C 369.667969 666.984375 373.527344 675.335938 373.90625 684.261719 C 374.222656 691.980469 372.007812 699.320312 367.515625 705.460938 C 375.109375 705.964844 382.257812 709.003906 387.886719 714.253906 C 394.46875 720.332031 398.453125 728.621094 398.769531 737.605469 C 399.210938 746.464844 396.050781 755.070312 390.164062 761.589844 L 415.21875 786.144531 C 422.242188 793.230469 431.730469 797.21875 441.726562 797.21875 Z M 441.726562 797.21875 "/><path style=" stroke:none;fill-rule:nonzero;fill:#00ad99;fill-opacity:1;" d="M 197.710938 401.582031 C 193.535156 439.679688 188.410156 490.492188 174.996094 526.5 C 163.039062 558.457031 140.453125 599.90625 121.789062 628.574219 C 119.890625 631.355469 117.996094 634.140625 115.96875 636.863281 C 114.769531 638.570312 112.804688 639.519531 110.78125 639.519531 C 110.085938 639.519531 109.328125 639.332031 108.632812 639.078125 L 21.386719 607.878906 C 19.742188 607.246094 18.414062 606.042969 17.78125 604.460938 C 16.894531 602.945312 16.832031 601.171875 17.402344 599.527344 L 106.859375 363.550781 C 107.492188 361.777344 108.882812 360.449219 110.464844 359.816406 C 112.238281 359.121094 114.136719 359.246094 115.78125 360.070312 Z M 197.710938 401.582031 "/><path style=" stroke:none;fill-rule:nonzero;fill:#000000;fill-opacity:0.3;" d="M 121.472656 629.015625 C 119.703125 631.671875 117.867188 634.269531 115.96875 636.863281 C 114.769531 638.570312 112.804688 639.519531 110.78125 639.519531 C 110.085938 639.519531 109.328125 639.332031 108.632812 639.078125 L 21.386719 607.878906 C 19.742188 607.246094 18.414062 606.042969 17.78125 604.460938 C 16.894531 602.945312 16.832031 601.171875 17.402344 599.527344 L 106.859375 363.550781 C 107.492188 361.777344 108.882812 360.449219 110.464844 359.816406 C 112.238281 359.121094 114.136719 359.246094 115.78125 360.070312 L 123.246094 363.804688 C 123.246094 363.804688 80.667969 477.078125 55.359375 545.675781 C 44.796875 574.277344 59.410156 605.980469 87.941406 616.613281 C 105.785156 623.257812 121.472656 629.015625 121.472656 629.015625 Z M 121.472656 629.015625 "/><path style=" stroke:none;fill-rule:nonzero;fill:#000000;fill-opacity:1;" d="M 110.78125 642.558594 C 109.578125 642.558594 108.441406 642.242188 107.683594 641.988281 L 20.375 610.789062 C 17.90625 609.90625 15.945312 608.007812 14.996094 605.726562 C 13.921875 603.578125 13.796875 600.980469 14.679688 598.515625 L 104.140625 362.476562 C 104.960938 360.070312 106.921875 358.046875 109.453125 356.96875 C 111.859375 355.957031 114.703125 356.082031 117.234375 357.285156 L 199.164062 398.863281 C 200.304688 399.429688 200.9375 400.632812 200.808594 401.898438 L 200.304688 406.644531 C 196.128906 444.992188 190.875 492.644531 177.96875 527.511719 C 165.507812 560.863281 142.097656 603.132812 124.449219 630.15625 C 122.550781 633.003906 120.589844 635.851562 118.5625 638.570312 C 116.664062 641.101562 113.820312 642.558594 110.78125 642.558594 Z M 112.871094 362.347656 C 112.425781 362.347656 112.046875 362.410156 111.667969 362.601562 C 110.78125 362.980469 110.023438 363.675781 109.769531 364.5625 L 20.25 600.601562 C 19.933594 601.488281 19.996094 602.3125 20.375 603.132812 C 20.753906 604.082031 21.449219 604.714844 22.335938 605.03125 L 109.578125 636.230469 C 110.71875 636.609375 112.617188 636.292969 113.503906 635.089844 C 115.464844 632.371094 117.425781 629.585938 119.257812 626.863281 C 136.722656 600.097656 159.875 558.332031 172.148438 525.425781 C 184.867188 491.253906 189.992188 443.980469 194.167969 406.011719 L 194.484375 403.355469 L 114.453125 362.726562 C 113.945312 362.476562 113.375 362.347656 112.871094 362.347656 Z M 112.871094 362.347656 "/><path style=" stroke:none;fill-rule:nonzero;fill:#e3e5e5;fill-opacity:1;" d="M 106.859375 570.289062 C 106.859375 581.300781 97.875 590.289062 86.804688 590.289062 C 75.734375 590.289062 66.8125 581.363281 66.8125 570.289062 C 66.8125 559.28125 75.734375 550.292969 86.804688 550.292969 C 97.875 550.292969 106.859375 559.214844 106.859375 570.289062 Z M 106.859375 570.289062 "/><path style=" stroke:none;fill-rule:nonzero;fill:#000000;fill-opacity:0.3;" d="M 106.859375 570.289062 C 106.859375 579.464844 100.53125 587.3125 91.992188 589.527344 C 95.34375 585.984375 97.371094 581.238281 97.371094 575.984375 C 97.371094 564.910156 88.386719 555.988281 77.3125 555.988281 C 75.480469 555.988281 73.769531 556.242188 72.125 556.683594 C 75.734375 552.761719 80.984375 550.292969 86.804688 550.292969 C 97.875 550.292969 106.859375 559.28125 106.859375 570.289062 Z M 106.859375 570.289062 "/><path style=" stroke:none;fill-rule:nonzero;fill:#000000;fill-opacity:1;" d="M 86.804688 593.261719 C 74.152344 593.261719 63.773438 582.945312 63.773438 570.226562 C 63.773438 557.570312 74.085938 547.191406 86.804688 547.191406 C 99.519531 547.191406 109.894531 557.507812 109.894531 570.226562 C 109.894531 582.945312 99.519531 593.261719 86.804688 593.261719 Z M 86.804688 553.332031 C 77.441406 553.332031 69.847656 560.925781 69.847656 570.289062 C 69.847656 579.65625 77.441406 587.25 86.804688 587.25 C 96.167969 587.25 103.824219 579.65625 103.824219 570.289062 C 103.824219 560.925781 96.167969 553.332031 86.804688 553.332031 Z M 86.804688 553.332031 "/><path style=" stroke:none;fill-rule:nonzero;fill:#000000;fill-opacity:1;" d="M 420.28125 810 C 409.460938 810 399.277344 805.761719 391.621094 798.039062 L 366.566406 773.550781 C 365.429688 772.410156 365.363281 770.574219 366.441406 769.375 C 371.882812 763.296875 374.664062 755.578125 374.285156 747.542969 C 373.96875 739.378906 370.425781 731.847656 364.351562 726.277344 C 359.226562 721.53125 352.648438 718.75 345.878906 718.304688 C 344.804688 718.242188 343.792969 717.546875 343.347656 716.535156 C 342.90625 715.519531 342.96875 714.382812 343.664062 713.433594 C 347.714844 707.925781 349.738281 701.21875 349.421875 694.132812 C 349.042969 685.90625 345.5 678.3125 339.488281 672.871094 C 333.480469 667.363281 325.632812 664.515625 317.410156 664.894531 C 312.601562 665.148438 308.171875 666.351562 304.25 668.566406 C 303.363281 669.074219 302.289062 669.074219 301.339844 668.628906 C 300.453125 668.125 299.820312 667.238281 299.757812 666.226562 C 299.0625 658.632812 295.582031 651.542969 290.015625 646.355469 C 281.410156 638.507812 268.882812 636.230469 258.128906 640.53125 C 257.179688 640.914062 256.167969 640.785156 255.34375 640.214844 C 254.523438 639.648438 254.015625 638.761719 254.015625 637.75 C 253.828125 629.457031 250.285156 621.546875 244.148438 615.980469 C 238.136719 610.472656 230.480469 607.625 222.128906 607.941406 C 213.90625 608.257812 206.378906 611.804688 200.871094 617.816406 L 178.414062 642.429688 C 174.933594 646.164062 172.53125 650.65625 171.328125 655.46875 C 171.074219 656.351562 170.441406 657.113281 169.621094 657.492188 C 168.734375 657.871094 167.785156 657.808594 166.960938 657.367188 L 120.460938 631.167969 C 119.765625 630.789062 119.195312 630.089844 119.007812 629.269531 C 118.816406 628.445312 118.945312 627.625 119.386719 626.863281 C 136.910156 600.03125 160.066406 558.265625 172.339844 525.425781 C 185.054688 491.253906 190.246094 443.917969 194.355469 405.886719 L 194.863281 401.203125 C 195.050781 399.558594 196.570312 398.355469 198.214844 398.546875 L 337.71875 413.226562 C 338.855469 413.351562 339.804688 414.113281 340.25 415.1875 C 340.628906 416.265625 340.4375 417.464844 339.679688 418.289062 C 338.855469 419.175781 337.148438 420.882812 334.996094 422.972656 C 330.820312 427.085938 319.625 437.90625 318.800781 440.691406 C 313.171875 464.167969 304.945312 483.214844 294.316406 497.453125 C 291.28125 501.503906 285.777344 508.90625 286.09375 519.03125 C 286.410156 530.738281 294.570312 540.296875 301.402344 544.914062 C 316.523438 554.976562 340.4375 550.738281 359.609375 534.535156 C 366.503906 530.234375 373.589844 521.945312 381.054688 509.730469 C 385.738281 502.074219 392.949219 496.378906 401.363281 493.847656 C 404.90625 492.769531 408.511719 492.203125 412.054688 492.203125 L 422.683594 492.203125 C 431.542969 492.203125 440.082031 495.429688 446.660156 501.3125 L 529.921875 575.351562 L 635.636719 662.808594 C 643.355469 670.527344 647.59375 680.714844 647.59375 691.539062 C 647.59375 702.359375 643.355469 712.546875 635.636719 720.265625 C 628.046875 727.925781 617.796875 732.164062 606.914062 732.164062 C 598.816406 732.164062 591.035156 729.757812 584.390625 725.328125 C 582.875 733.113281 579.015625 740.328125 573.320312 746.023438 C 565.664062 753.679688 555.480469 757.917969 544.597656 757.917969 C 535.171875 757.917969 526.1875 754.691406 518.976562 748.808594 C 517.332031 756.335938 513.535156 763.234375 508.03125 768.742188 C 500.375 776.398438 490.125 780.636719 479.308594 780.636719 C 472.789062 780.636719 466.464844 779.054688 460.644531 776.019531 C 459.316406 784.371094 455.394531 792.027344 449.320312 798.039062 C 441.410156 805.761719 431.160156 810 420.28125 810 Z M 372.765625 771.144531 L 395.859375 793.738281 C 402.375 800.316406 411.042969 803.988281 420.28125 803.988281 C 429.582031 803.988281 438.246094 800.382812 444.765625 793.800781 C 450.902344 787.726562 454.445312 779.625 454.761719 770.890625 C 454.824219 769.816406 455.457031 768.804688 456.40625 768.296875 C 457.417969 767.792969 458.554688 767.855469 459.503906 768.488281 C 465.390625 772.472656 472.09375 774.5625 478.992188 774.5625 C 488.226562 774.5625 496.894531 770.957031 503.410156 764.4375 C 509.421875 758.425781 512.902344 750.832031 513.40625 742.414062 C 513.472656 741.214844 514.230469 740.199219 515.367188 739.757812 C 516.445312 739.316406 517.710938 739.632812 518.59375 740.453125 L 519.796875 741.65625 C 526.3125 748.175781 534.980469 751.78125 544.21875 751.78125 C 553.457031 751.78125 562.121094 748.175781 568.640625 741.65625 C 574.585938 735.769531 578.128906 727.859375 578.636719 719.507812 C 578.761719 717.167969 581.988281 715.835938 583.757812 717.417969 C 590.023438 722.988281 598.121094 726.027344 606.535156 726.027344 C 615.835938 726.027344 624.503906 722.417969 630.957031 715.902344 C 637.535156 709.320312 641.140625 700.648438 641.140625 691.410156 C 641.140625 682.234375 637.535156 673.566406 630.957031 666.984375 L 629.878906 665.910156 L 525.617188 579.847656 L 442.359375 505.742188 C 436.855469 500.871094 429.769531 498.148438 422.367188 498.148438 L 411.738281 498.148438 C 408.765625 498.148438 405.792969 498.59375 402.820312 499.542969 C 395.859375 501.695312 389.847656 506.375 385.925781 512.832031 C 377.953125 525.867188 370.171875 534.851562 362.835938 539.410156 C 342.019531 557.066406 315.132812 561.558594 297.734375 549.976562 C 289.699219 544.535156 280.144531 533.269531 279.703125 519.222656 C 279.386719 507.007812 285.902344 498.148438 289.066406 493.910156 C 299.25 480.304688 307.160156 461.953125 312.601562 439.234375 C 313.488281 435.566406 319.308594 429.425781 330.441406 418.605469 L 200.304688 404.9375 L 200.113281 406.582031 C 195.9375 444.929688 190.6875 492.644531 177.71875 527.574219 C 165.695312 559.785156 143.363281 600.414062 125.964844 627.496094 L 166.394531 650.277344 C 168.039062 645.910156 170.570312 641.796875 173.796875 638.316406 L 196.253906 613.765625 C 202.835938 606.550781 211.882812 602.375 221.75 601.929688 C 231.558594 601.550781 240.921875 604.96875 248.070312 611.550781 C 254.394531 617.308594 258.445312 625.15625 259.582031 633.636719 C 271.542969 630.34375 284.699219 633.445312 294 641.925781 C 299.695312 647.175781 303.492188 654.011719 305.070312 661.480469 C 308.804688 659.960938 312.855469 659.074219 317.09375 658.882812 C 327.089844 658.503906 336.324219 661.859375 343.476562 668.441406 C 350.6875 674.957031 354.863281 684.007812 355.367188 693.878906 C 355.621094 700.648438 354.167969 707.167969 351.066406 712.863281 C 357.457031 714.191406 363.53125 717.292969 368.402344 721.785156 C 375.675781 728.429688 379.851562 737.480469 380.296875 747.226562 C 380.675781 755.894531 378.019531 764.246094 372.765625 771.144531 Z M 372.765625 771.144531 "/><path style=" stroke:none;fill-rule:nonzero;fill:#fba574;fill-opacity:1;" d="M 378.207031 743.746094 C 378.652344 752.605469 375.488281 761.210938 369.605469 767.726562 C 369.539062 767.792969 369.476562 767.917969 369.414062 767.980469 L 350.308594 788.800781 L 346.953125 792.40625 C 338.476562 801.582031 326.203125 805 314.816406 802.53125 C 309.183594 801.265625 303.933594 798.671875 299.378906 794.558594 C 293.621094 789.179688 290.078125 782.21875 288.875 775.003906 L 346.953125 711.660156 C 354.546875 712.167969 361.695312 715.203125 367.328125 720.457031 C 373.90625 726.46875 377.890625 734.757812 378.207031 743.746094 Z M 378.207031 743.746094 "/><path style=" stroke:none;fill-rule:nonzero;fill:#fba574;fill-opacity:1;" d="M 353.34375 690.460938 C 353.660156 698.183594 351.445312 705.523438 346.953125 711.660156 L 288.875 775.003906 C 283.117188 780.003906 275.96875 782.851562 268.316406 783.230469 C 265.339844 783.359375 262.304688 783.042969 259.457031 782.472656 C 253.761719 781.207031 248.511719 778.484375 244.148438 774.4375 C 234.972656 766.019531 231.558594 753.679688 234.023438 742.289062 C 234.53125 740.265625 235.101562 738.238281 235.984375 736.277344 L 303.679688 662.363281 C 308.109375 659.898438 313.042969 658.566406 318.230469 658.316406 C 327.277344 657.933594 335.882812 661.035156 342.460938 667.109375 C 349.105469 673.121094 352.902344 681.476562 353.34375 690.460938 Z M 353.34375 690.460938 "/><path style=" stroke:none;fill-rule:nonzero;fill:#fba574;fill-opacity:1;" d="M 303.679688 662.363281 L 235.984375 736.277344 C 233.582031 736.277344 231.113281 736.023438 228.773438 735.519531 C 223.144531 734.253906 217.890625 731.53125 213.464844 727.480469 C 203.65625 718.496094 200.429688 705.078125 203.847656 693.183594 L 257.9375 634.203125 C 269.515625 629.585938 283.246094 631.738281 292.988281 640.597656 C 299.378906 646.480469 302.984375 654.265625 303.679688 662.363281 Z M 303.679688 662.363281 "/><path style=" stroke:none;fill-rule:nonzero;fill:#fba574;fill-opacity:1;" d="M 258.761719 633.253906 L 204.667969 692.234375 L 204.164062 692.234375 C 201.1875 692.359375 198.152344 692.105469 195.367188 691.472656 C 189.675781 690.273438 184.421875 687.488281 179.933594 683.4375 C 173.351562 677.363281 169.429688 669.074219 169.113281 660.085938 C 168.921875 656.734375 169.304688 653.441406 170.0625 650.277344 C 171.390625 644.960938 174.046875 640.027344 177.84375 635.914062 L 181.703125 631.671875 L 200.304688 611.296875 C 212.765625 597.691406 234.214844 596.679688 247.816406 609.273438 C 254.839844 615.726562 258.570312 624.460938 258.761719 633.253906 Z M 258.761719 633.253906 "/><g mask="url(#b2ae8608e0)" transform="matrix(1,0,0,1,164,600)"><g clip-path="url(#2915ab78ec)"><g clip-rule="nonzero" clip-path="url(#28914829a0)"><path style=" stroke:none;fill-rule:nonzero;fill:#000000;fill-opacity:1;" d="M 190.230469 184.5625 L 186.308594 188.863281 L 182.953125 192.472656 C 174.476562 201.648438 162.203125 205.0625 150.816406 202.597656 C 145.183594 201.332031 139.933594 198.734375 135.378906 194.621094 C 129.621094 189.242188 126.078125 182.28125 124.875 175.070312 L 134.238281 164.816406 C 136.328125 163.742188 138.226562 162.347656 140.058594 160.765625 C 141.199219 167.980469 144.804688 174.941406 150.5625 180.320312 C 155.117188 184.433594 160.367188 187.027344 166 188.292969 C 174.222656 190.066406 182.890625 188.863281 190.230469 184.5625 Z M 190.230469 184.5625 "/></g><path style=" stroke:none;fill-rule:nonzero;fill:#000000;fill-opacity:1;" d="M 134.304688 164.816406 L 124.9375 175.070312 C 119.183594 180.066406 112.03125 182.914062 104.378906 183.296875 C 101.40625 183.421875 98.367188 183.105469 95.519531 182.535156 C 89.828125 181.269531 84.574219 178.550781 80.210938 174.5 C 71.035156 166.082031 67.621094 153.742188 70.085938 142.351562 C 70.59375 140.328125 71.164062 138.300781 72.050781 136.339844 L 85.273438 121.914062 C 85.96875 122.039062 86.601562 122.039062 87.296875 122.039062 C 86.472656 124 85.839844 126.027344 85.335938 128.050781 C 82.867188 139.441406 86.21875 151.78125 95.457031 160.199219 C 99.824219 164.246094 105.074219 166.96875 110.769531 168.234375 C 113.613281 168.867188 116.652344 169.121094 119.625 168.992188 C 124.8125 168.742188 129.8125 167.285156 134.304688 164.816406 Z M 134.304688 164.816406 "/><path style=" stroke:none;fill-rule:nonzero;fill:#000000;fill-opacity:1;" d="M 85.207031 121.847656 L 71.984375 136.277344 C 69.582031 136.277344 67.113281 136.023438 64.773438 135.519531 C 59.144531 134.253906 53.890625 131.53125 49.464844 127.480469 C 39.65625 118.496094 36.429688 105.078125 39.847656 93.183594 L 40.605469 92.359375 L 53.703125 78.058594 L 53.765625 78.058594 C 54.335938 78.121094 54.839844 78.058594 55.410156 78.058594 L 55.851562 78.058594 L 55.09375 78.882812 C 51.675781 90.777344 54.902344 104.195312 64.710938 113.179688 C 69.140625 117.230469 74.390625 119.949219 80.019531 121.214844 C 81.664062 121.597656 83.4375 121.785156 85.207031 121.847656 Z M 85.207031 121.847656 "/><path style=" stroke:none;fill-rule:nonzero;fill:#000000;fill-opacity:1;" d="M 53.765625 77.996094 L 40.667969 92.296875 L 40.164062 92.296875 C 37.1875 92.421875 34.152344 92.171875 31.367188 91.539062 C 25.675781 90.335938 20.421875 87.550781 15.933594 83.5 C 9.351562 77.425781 5.429688 69.136719 5.113281 60.148438 C 4.921875 56.796875 5.304688 53.503906 6.0625 50.339844 C 7.390625 45.027344 10.046875 40.089844 13.84375 35.976562 L 17.703125 31.738281 L 36.304688 11.359375 C 38.644531 8.828125 41.300781 6.675781 44.210938 5.03125 L 32.886719 17.371094 L 29.027344 21.613281 C 25.230469 25.726562 22.574219 30.660156 21.246094 35.976562 C 20.488281 39.140625 20.109375 42.429688 20.296875 45.785156 C 20.675781 54.769531 24.535156 63.0625 31.117188 69.136719 C 35.609375 73.1875 40.859375 75.96875 46.550781 77.171875 C 48.832031 77.742188 51.296875 77.996094 53.765625 77.996094 Z M 53.765625 77.996094 "/></g><mask id="b2ae8608e0"><g filter="url(#e67656a5d2)"><rect x="0" width="810" y="0" height="809.999993" style="fill:#000000;fill-opacity:0.3;stroke:none;"/></g></mask></g><path style=" stroke:none;fill-rule:nonzero;fill:#000000;fill-opacity:1;" d="M 322.28125 806.394531 C 319.625 806.394531 316.902344 806.078125 314.183594 805.507812 C 307.792969 804.050781 302.160156 801.140625 297.355469 796.773438 C 291.28125 791.078125 287.230469 783.484375 285.902344 775.449219 C 285.777344 774.5625 286.027344 773.613281 286.660156 772.917969 L 344.738281 709.574219 C 345.371094 708.875 346.320312 708.558594 347.144531 708.625 C 355.367188 709.128906 363.214844 712.546875 369.351562 718.179688 C 376.625 724.824219 380.800781 733.871094 381.246094 743.617188 C 381.6875 753.238281 378.398438 762.539062 371.882812 769.753906 L 349.230469 794.496094 C 342.144531 802.214844 332.402344 806.394531 322.28125 806.394531 Z M 292.167969 775.953125 C 293.496094 782.15625 296.722656 787.914062 301.464844 792.34375 C 305.453125 795.953125 310.195312 798.417969 315.511719 799.621094 C 326.328125 801.964844 337.273438 798.546875 344.738281 790.382812 L 367.199219 765.894531 C 372.765625 759.628906 375.550781 751.84375 375.171875 743.871094 C 374.855469 735.769531 371.3125 728.242188 365.238281 722.671875 C 360.492188 718.304688 354.484375 715.519531 348.15625 714.824219 Z M 292.167969 775.953125 "/><path style=" stroke:none;fill-rule:nonzero;fill:#000000;fill-opacity:1;" d="M 266.984375 786.269531 C 264.328125 786.269531 261.609375 785.953125 258.824219 785.382812 C 252.5 783.992188 246.742188 780.953125 242.058594 776.585938 C 232.507812 767.855469 228.265625 754.375 231.050781 741.53125 C 231.683594 738.871094 232.378906 736.847656 233.140625 734.949219 C 233.265625 734.632812 233.453125 734.378906 233.707031 734.125 L 301.402344 660.214844 C 301.59375 659.960938 301.847656 659.769531 302.160156 659.644531 C 306.90625 656.984375 312.285156 655.46875 318.042969 655.214844 C 327.910156 654.835938 337.273438 658.1875 344.421875 664.769531 C 351.636719 671.289062 355.8125 680.335938 356.316406 690.273438 C 356.632812 698.75 354.230469 706.726562 349.359375 713.371094 L 291.089844 776.96875 C 284.574219 782.664062 276.792969 785.761719 268.441406 786.207031 C 268 786.269531 267.492188 786.269531 266.984375 786.269531 Z M 238.578125 737.921875 C 238.011719 739.316406 237.503906 740.960938 236.996094 742.984375 C 234.65625 753.679688 238.199219 764.878906 246.234375 772.222656 C 250.15625 775.890625 254.964844 778.421875 260.152344 779.5625 C 262.808594 780.132812 265.65625 780.382812 268.1875 780.257812 C 275.210938 779.941406 281.664062 777.347656 286.914062 772.789062 L 344.738281 709.636719 C 348.597656 704.382812 350.5625 697.675781 350.308594 690.589844 C 349.929688 682.296875 346.386719 674.769531 340.375 669.324219 C 334.363281 663.820312 326.519531 660.972656 318.292969 661.351562 C 313.675781 661.542969 309.375 662.746094 305.515625 664.769531 Z M 238.578125 737.921875 "/><path style=" stroke:none;fill-rule:nonzero;fill:#000000;fill-opacity:1;" d="M 235.984375 739.25 C 233.203125 739.25 230.542969 738.933594 228.078125 738.367188 C 221.878906 736.972656 216.121094 733.9375 211.375 729.570312 C 201 720.140625 197.015625 705.777344 200.871094 692.234375 C 201 691.789062 201.253906 691.347656 201.570312 691.03125 L 255.660156 632.054688 C 255.976562 631.738281 256.355469 631.484375 256.800781 631.292969 C 269.769531 626.167969 284.765625 628.890625 295.011719 638.316406 C 301.71875 644.519531 305.894531 653 306.71875 662.113281 C 306.78125 662.933594 306.527344 663.820312 305.957031 664.453125 L 238.261719 738.367188 C 237.628906 738.933594 236.808594 739.25 235.984375 739.25 Z M 206.566406 694.636719 C 203.65625 705.777344 207.011719 717.417969 215.488281 725.203125 C 219.472656 728.808594 224.28125 731.40625 229.46875 732.542969 C 231.113281 732.921875 232.886719 733.175781 234.71875 733.238281 L 300.582031 661.351562 C 299.632812 654.203125 296.277344 647.683594 290.964844 642.8125 C 282.550781 635.152344 270.339844 632.75 259.710938 636.734375 Z M 206.566406 694.636719 "/><path style=" stroke:none;fill-rule:nonzero;fill:#000000;fill-opacity:1;" d="M 202.960938 695.335938 C 199.925781 695.335938 197.203125 695.019531 194.671875 694.449219 C 188.597656 693.183594 182.777344 690.144531 177.90625 685.714844 C 170.695312 679.070312 166.457031 670.023438 166.078125 660.277344 C 165.886719 656.796875 166.265625 653.1875 167.152344 649.582031 C 168.605469 643.761719 171.582031 638.382812 175.691406 633.886719 L 198.152344 609.335938 C 204.730469 602.121094 213.84375 597.945312 223.648438 597.5 C 233.453125 597.121094 242.820312 600.539062 249.96875 607.121094 C 257.242188 613.765625 261.546875 623.320312 261.796875 633.191406 C 261.796875 633.953125 261.546875 634.710938 260.976562 635.28125 L 206.882812 694.257812 C 206.3125 694.890625 205.492188 695.269531 204.667969 695.269531 C 204.097656 695.335938 203.53125 695.335938 202.960938 695.335938 Z M 225.167969 603.511719 C 224.722656 603.511719 224.28125 603.511719 223.839844 603.511719 C 215.613281 603.828125 208.085938 607.375 202.582031 613.386719 L 180.121094 638 C 176.707031 641.734375 174.238281 646.226562 173.035156 651.039062 C 172.277344 654.011719 172.023438 656.984375 172.148438 659.960938 C 172.464844 668.125 176.007812 675.652344 182.019531 681.222656 C 186.132812 684.957031 190.941406 687.488281 196.066406 688.5625 C 198.34375 689.132812 200.808594 689.324219 203.339844 689.324219 L 255.726562 632.179688 C 255.28125 624.332031 251.738281 616.929688 245.917969 611.613281 C 240.222656 606.359375 232.886719 603.511719 225.167969 603.511719 Z M 225.167969 603.511719 "/><path style=" stroke:none;fill-rule:nonzero;fill:#000000;fill-opacity:1;" d="M 457.796875 773.992188 C 456.972656 773.992188 456.152344 773.675781 455.519531 772.980469 C 454.949219 772.285156 395.351562 705.144531 341.199219 669.515625 C 339.804688 668.566406 339.425781 666.730469 340.3125 665.339844 C 341.261719 663.945312 343.09375 663.566406 344.488281 664.453125 C 399.339844 700.523438 459.378906 768.296875 460.011719 768.992188 C 461.085938 770.257812 461.023438 772.15625 459.757812 773.296875 C 459.25 773.738281 458.492188 773.992188 457.796875 773.992188 Z M 457.796875 773.992188 "/><path style=" stroke:none;fill-rule:nonzero;fill:#000000;fill-opacity:1;" d="M 516.824219 746.085938 C 516 746.085938 515.117188 745.707031 514.546875 745.011719 C 513.722656 744.0625 431.476562 649.519531 365.933594 612.371094 C 364.480469 611.550781 363.972656 609.714844 364.796875 608.257812 C 365.617188 606.804688 367.453125 606.296875 368.90625 607.121094 C 435.335938 644.773438 518.277344 740.074219 519.101562 741.023438 C 520.175781 742.289062 520.050781 744.1875 518.785156 745.261719 C 518.214844 745.832031 517.519531 746.085938 516.824219 746.085938 Z M 516.824219 746.085938 "/><path style=" stroke:none;fill-rule:nonzero;fill:#000000;fill-opacity:1;" d="M 583.253906 723.8125 C 582.429688 723.8125 581.546875 723.429688 580.976562 722.734375 C 580.152344 721.785156 498.539062 626.675781 433.3125 589.085938 C 431.859375 588.261719 431.351562 586.425781 432.175781 584.972656 C 432.996094 583.515625 434.832031 583.011719 436.285156 583.832031 C 502.398438 621.929688 584.707031 717.863281 585.53125 718.8125 C 586.605469 720.078125 586.480469 721.976562 585.214844 723.050781 C 584.644531 723.621094 583.949219 723.8125 583.253906 723.8125 Z M 583.253906 723.8125 "/><path style=" stroke:none;fill-rule:nonzero;fill:#29abe2;fill-opacity:1;" d="M 791.460938 591.679688 L 679.164062 363.742188 C 678.40625 362.160156 676.949219 360.894531 675.179688 360.386719 C 673.40625 359.878906 671.574219 360.195312 669.992188 361.144531 L 599.703125 404.746094 C 597.488281 406.074219 596.285156 408.734375 596.792969 411.328125 C 596.917969 412.085938 597.109375 412.972656 597.296875 413.667969 L 683.152344 621.105469 C 687.957031 628.191406 692.957031 635.152344 698.144531 641.988281 C 699.410156 643.695312 701.371094 644.519531 703.269531 644.519531 C 704.28125 644.519531 705.355469 644.328125 706.304688 643.824219 L 788.742188 600.222656 C 791.777344 598.640625 793.042969 594.84375 791.460938 591.679688 Z M 791.460938 591.679688 "/><path style=" stroke:none;fill-rule:nonzero;fill:#000000;fill-opacity:0.3;" d="M 791.527344 591.679688 L 788.617188 585.730469 L 735.597656 612.878906 C 720.097656 620.851562 701.054688 614.019531 694.097656 598.070312 L 607.546875 399.875 L 599.640625 404.808594 C 597.425781 406.140625 596.222656 408.796875 596.730469 411.390625 C 596.855469 412.152344 597.046875 413.035156 597.234375 413.734375 L 683.085938 621.167969 C 687.894531 628.257812 692.894531 635.21875 698.082031 642.050781 C 699.347656 643.761719 701.308594 644.582031 703.207031 644.582031 C 704.21875 644.582031 705.292969 644.394531 706.242188 643.886719 L 788.679688 600.285156 C 791.84375 598.640625 793.042969 594.84375 791.527344 591.679688 Z M 791.527344 591.679688 "/><path style=" stroke:none;fill-rule:nonzero;fill:#000000;fill-opacity:1;" d="M 703.269531 647.621094 C 700.234375 647.621094 697.511719 646.226562 695.675781 643.886719 C 690.300781 636.800781 685.175781 629.710938 680.558594 622.878906 C 680.429688 622.6875 680.367188 622.496094 680.242188 622.371094 L 594.453125 414.933594 C 594.136719 413.667969 593.882812 412.71875 593.753906 411.835938 C 593.058594 408.101562 594.769531 404.175781 598.121094 402.152344 L 668.410156 358.550781 C 670.75 357.097656 673.535156 356.714844 676 357.414062 C 678.53125 358.109375 680.683594 359.878906 681.886719 362.285156 L 794.246094 590.222656 C 796.523438 594.78125 794.6875 600.414062 790.132812 602.816406 L 707.699219 646.417969 C 706.433594 647.304688 704.976562 647.621094 703.269531 647.621094 Z M 685.808594 619.714844 C 690.300781 626.359375 695.296875 633.253906 700.550781 640.214844 C 701.5625 641.609375 703.710938 641.863281 704.851562 641.230469 L 787.351562 597.566406 C 788.996094 596.679688 789.691406 594.652344 788.867188 593.007812 L 676.507812 365.070312 C 676.066406 364.246094 675.304688 363.550781 674.421875 363.296875 C 673.535156 363.042969 672.457031 363.234375 671.636719 363.742188 L 601.347656 407.339844 C 600.144531 408.039062 599.574219 409.429688 599.828125 410.820312 C 599.957031 411.644531 600.082031 412.339844 600.273438 412.972656 Z M 788.742188 600.285156 Z M 788.742188 600.285156 "/><path style=" stroke:none;fill-rule:nonzero;fill:#e3e5e5;fill-opacity:1;" d="M 743.441406 575.796875 C 743.441406 576.515625 743.40625 577.238281 743.335938 577.953125 C 743.265625 578.671875 743.160156 579.386719 743.019531 580.09375 C 742.878906 580.800781 742.703125 581.5 742.496094 582.1875 C 742.285156 582.878906 742.042969 583.558594 741.765625 584.222656 C 741.492188 584.890625 741.183594 585.539062 740.84375 586.175781 C 740.503906 586.8125 740.132812 587.429688 739.734375 588.03125 C 739.332031 588.628906 738.902344 589.210938 738.445312 589.765625 C 737.988281 590.324219 737.503906 590.859375 736.996094 591.367188 C 736.484375 591.878906 735.953125 592.363281 735.394531 592.820312 C 734.835938 593.277344 734.257812 593.707031 733.660156 594.105469 C 733.058594 594.507812 732.441406 594.878906 731.804688 595.21875 C 731.167969 595.558594 730.519531 595.867188 729.851562 596.140625 C 729.1875 596.417969 728.507812 596.660156 727.816406 596.871094 C 727.128906 597.078125 726.429688 597.253906 725.722656 597.394531 C 725.015625 597.535156 724.300781 597.640625 723.585938 597.710938 C 722.867188 597.78125 722.148438 597.816406 721.425781 597.816406 C 720.707031 597.816406 719.988281 597.78125 719.269531 597.710938 C 718.550781 597.640625 717.839844 597.535156 717.132812 597.394531 C 716.425781 597.253906 715.726562 597.078125 715.035156 596.871094 C 714.34375 596.660156 713.667969 596.417969 713 596.140625 C 712.335938 595.867188 711.683594 595.558594 711.046875 595.21875 C 710.414062 594.878906 709.792969 594.507812 709.195312 594.105469 C 708.59375 593.707031 708.015625 593.277344 707.460938 592.820312 C 706.902344 592.363281 706.367188 591.878906 705.859375 591.367188 C 705.347656 590.859375 704.863281 590.324219 704.40625 589.765625 C 703.949219 589.210938 703.519531 588.628906 703.121094 588.03125 C 702.71875 587.429688 702.351562 586.8125 702.007812 586.175781 C 701.667969 585.539062 701.363281 584.890625 701.085938 584.222656 C 700.808594 583.558594 700.566406 582.878906 700.359375 582.1875 C 700.148438 581.5 699.972656 580.800781 699.832031 580.09375 C 699.691406 579.386719 699.585938 578.671875 699.515625 577.953125 C 699.445312 577.238281 699.410156 576.515625 699.410156 575.796875 C 699.410156 575.074219 699.445312 574.355469 699.515625 573.636719 C 699.585938 572.917969 699.691406 572.207031 699.832031 571.5 C 699.972656 570.792969 700.148438 570.09375 700.359375 569.402344 C 700.566406 568.714844 700.808594 568.035156 701.085938 567.367188 C 701.363281 566.703125 701.667969 566.050781 702.007812 565.414062 C 702.351562 564.777344 702.71875 564.160156 703.121094 563.5625 C 703.519531 562.960938 703.949219 562.382812 704.40625 561.824219 C 704.863281 561.269531 705.347656 560.734375 705.859375 560.222656 C 706.367188 559.714844 706.902344 559.230469 707.460938 558.773438 C 708.015625 558.316406 708.59375 557.886719 709.195312 557.484375 C 709.792969 557.085938 710.414062 556.714844 711.046875 556.375 C 711.683594 556.035156 712.335938 555.726562 713 555.449219 C 713.667969 555.175781 714.34375 554.933594 715.035156 554.722656 C 715.726562 554.511719 716.425781 554.339844 717.132812 554.199219 C 717.839844 554.054688 718.550781 553.949219 719.269531 553.878906 C 719.988281 553.808594 720.707031 553.773438 721.425781 553.773438 C 722.148438 553.773438 722.867188 553.808594 723.585938 553.878906 C 724.300781 553.949219 725.015625 554.054688 725.722656 554.199219 C 726.429688 554.339844 727.128906 554.511719 727.816406 554.722656 C 728.507812 554.933594 729.1875 555.175781 729.851562 555.449219 C 730.519531 555.726562 731.167969 556.035156 731.804688 556.375 C 732.441406 556.714844 733.058594 557.085938 733.660156 557.484375 C 734.257812 557.886719 734.835938 558.316406 735.394531 558.773438 C 735.953125 559.230469 736.484375 559.714844 736.996094 560.222656 C 737.503906 560.734375 737.988281 561.269531 738.445312 561.824219 C 738.902344 562.382812 739.332031 562.960938 739.734375 563.5625 C 740.132812 564.160156 740.503906 564.777344 740.84375 565.414062 C 741.183594 566.050781 741.492188 566.703125 741.765625 567.367188 C 742.042969 568.035156 742.285156 568.714844 742.496094 569.402344 C 742.703125 570.09375 742.878906 570.792969 743.019531 571.5 C 743.160156 572.207031 743.265625 572.917969 743.335938 573.636719 C 743.40625 574.355469 743.441406 575.074219 743.441406 575.796875 Z M 743.441406 575.796875 "/><path style=" stroke:none;fill-rule:nonzero;fill:#000000;fill-opacity:0.3;" d="M 737.304688 560.546875 C 735.976562 560.292969 734.585938 560.164062 733.132812 560.164062 C 720.921875 560.164062 711.113281 570.039062 711.113281 582.1875 C 711.113281 588.136719 713.390625 593.453125 717.1875 597.375 C 707.066406 595.351562 699.472656 586.492188 699.472656 575.734375 C 699.472656 563.582031 709.34375 553.710938 721.488281 553.710938 C 727.691406 553.773438 733.320312 556.367188 737.304688 560.546875 Z M 737.304688 560.546875 "/><path style=" stroke:none;fill-rule:nonzero;fill:#000000;fill-opacity:1;" d="M 721.425781 600.917969 C 707.570312 600.917969 696.375 589.65625 696.375 575.859375 C 696.375 562.0625 707.632812 550.800781 721.425781 550.800781 C 735.28125 550.800781 746.480469 562.0625 746.480469 575.859375 C 746.480469 589.65625 735.21875 600.917969 721.425781 600.917969 Z M 721.425781 556.8125 C 710.925781 556.8125 702.382812 565.355469 702.382812 575.859375 C 702.382812 586.363281 710.925781 594.90625 721.425781 594.90625 C 731.929688 594.90625 740.46875 586.363281 740.46875 575.859375 C 740.46875 565.355469 731.929688 556.8125 721.425781 556.8125 Z M 721.425781 556.8125 "/><path style=" stroke:none;fill-rule:nonzero;fill:#39b54a;fill-opacity:1;" d="M 642.914062 245.785156 C 642.34375 248.757812 640.257812 251.164062 637.410156 252.050781 L 293.683594 360.324219 C 292.925781 360.578125 292.101562 360.703125 291.34375 360.703125 C 289.570312 360.703125 287.925781 360.132812 286.472656 358.996094 L 169.304688 269.261719 C 166.960938 267.425781 165.761719 264.453125 166.328125 261.476562 C 166.835938 258.566406 168.988281 256.097656 171.769531 255.214844 L 515.367188 146.9375 C 517.835938 146.117188 520.558594 146.621094 522.644531 148.203125 L 639.875 238 C 642.21875 239.835938 643.355469 242.808594 642.914062 245.785156 Z M 642.914062 245.785156 "/><path style=" stroke:none;fill-rule:nonzero;fill:#000000;fill-opacity:0.3;" d="M 642.914062 245.785156 C 642.34375 248.757812 640.257812 251.164062 637.410156 252.050781 L 293.683594 360.324219 C 292.925781 360.578125 292.101562 360.703125 291.34375 360.703125 C 289.570312 360.703125 287.925781 360.132812 286.472656 358.996094 L 169.304688 269.261719 C 166.960938 267.425781 165.761719 264.453125 166.328125 261.476562 C 166.835938 258.566406 168.988281 256.097656 171.769531 255.214844 L 178.984375 253 L 295.394531 342.289062 C 296.910156 343.425781 298.492188 343.996094 300.328125 343.996094 C 301.023438 343.996094 301.910156 343.808594 302.730469 343.617188 L 639.179688 237.558594 L 639.8125 238.0625 C 642.21875 239.835938 643.355469 242.808594 642.914062 245.785156 Z M 642.914062 245.785156 "/><path style=" stroke:none;fill-rule:nonzero;fill:#58cc81;fill-opacity:1;" d="M 256.292969 258.757812 L 496.007812 182.25 C 501.007812 180.667969 506.386719 181.617188 510.5625 184.78125 L 557.628906 220.535156 C 567.941406 228.382812 565.160156 244.582031 552.824219 248.570312 L 313.042969 325.011719 C 308.046875 326.59375 302.667969 325.644531 298.492188 322.480469 L 251.484375 286.726562 C 241.171875 278.945312 243.957031 262.679688 256.292969 258.757812 Z M 256.292969 258.757812 "/><path style=" stroke:none;fill-rule:nonzero;fill:#000000;fill-opacity:1;" d="M 308.234375 328.808594 C 304.125 328.808594 300.074219 327.480469 296.722656 324.949219 L 249.714844 289.195312 C 244.019531 284.890625 241.238281 277.804688 242.503906 270.78125 C 243.703125 263.757812 248.703125 258.0625 255.472656 255.847656 L 495.058594 179.339844 C 500.945312 177.441406 507.460938 178.578125 512.394531 182.3125 L 559.464844 218.066406 C 565.160156 222.371094 567.941406 229.457031 566.679688 236.480469 C 565.476562 243.507812 560.476562 249.203125 553.707031 251.417969 L 313.992188 327.921875 C 312.09375 328.554688 310.132812 328.808594 308.234375 328.808594 Z M 500.882812 184.527344 C 499.550781 184.527344 498.222656 184.71875 496.957031 185.160156 L 257.242188 261.667969 C 252.5625 263.1875 249.207031 266.984375 248.386719 271.855469 C 247.5625 276.730469 249.398438 281.410156 253.320312 284.386719 L 300.328125 320.140625 C 303.679688 322.671875 308.109375 323.429688 312.15625 322.164062 L 551.875 245.65625 C 556.554688 244.140625 559.910156 240.34375 560.730469 235.46875 C 561.554688 230.597656 559.71875 225.914062 555.796875 222.941406 L 508.726562 187.1875 C 506.449219 185.414062 503.664062 184.527344 500.882812 184.527344 Z M 256.292969 258.757812 Z M 256.292969 258.757812 "/><path style=" stroke:none;fill-rule:nonzero;fill:#000000;fill-opacity:1;" d="M 291.34375 363.742188 C 288.875 363.742188 286.535156 362.917969 284.574219 361.398438 L 167.46875 271.667969 C 164.179688 269.070312 162.597656 264.957031 163.355469 260.910156 C 164.050781 256.921875 166.960938 253.566406 170.886719 252.300781 L 514.421875 144.027344 C 517.835938 142.953125 521.570312 143.585938 524.480469 145.800781 L 641.710938 235.597656 C 644.9375 238.0625 646.582031 242.175781 645.886719 246.226562 C 645.886719 246.226562 645.886719 246.289062 645.886719 246.289062 C 645.128906 250.402344 642.21875 253.695312 638.296875 254.898438 L 294.632812 363.234375 C 293.429688 363.550781 292.355469 363.742188 291.34375 363.742188 Z M 517.773438 149.597656 C 517.265625 149.597656 516.761719 149.660156 516.316406 149.851562 L 172.65625 258.125 C 170.949219 258.695312 169.554688 260.210938 169.304688 261.984375 C 168.921875 263.820312 169.683594 265.71875 171.136719 266.855469 L 288.242188 356.589844 C 289.507812 357.539062 290.585938 358.046875 292.796875 357.347656 L 636.398438 249.074219 C 638.167969 248.503906 639.496094 247.050781 639.875 245.214844 C 640.191406 243.316406 639.433594 241.542969 637.980469 240.34375 L 520.808594 150.671875 C 519.925781 149.976562 518.847656 149.597656 517.773438 149.597656 Z M 642.914062 245.785156 Z M 642.914062 245.785156 "/><path style=" stroke:none;fill-rule:nonzero;fill:#39b54a;fill-opacity:1;" d="M 642.914062 216.863281 C 642.34375 219.839844 640.257812 222.242188 637.410156 223.128906 L 293.683594 331.339844 C 292.863281 331.59375 292.101562 331.71875 291.28125 331.71875 C 289.507812 331.71875 287.863281 331.152344 286.410156 330.011719 L 169.304688 240.277344 C 166.960938 238.445312 165.761719 235.46875 166.328125 232.496094 C 166.835938 229.585938 168.988281 227.117188 171.769531 226.230469 L 515.367188 117.957031 C 517.835938 117.132812 520.558594 117.640625 522.644531 119.222656 L 639.875 209.019531 C 642.21875 210.917969 643.355469 213.890625 642.914062 216.863281 Z M 642.914062 216.863281 "/><path style=" stroke:none;fill-rule:nonzero;fill:#000000;fill-opacity:0.3;" d="M 642.914062 216.863281 C 642.34375 219.839844 640.257812 222.242188 637.410156 223.128906 L 293.683594 331.339844 C 292.863281 331.59375 292.101562 331.71875 291.28125 331.71875 C 289.507812 331.71875 287.863281 331.152344 286.410156 330.011719 L 169.304688 240.277344 C 166.960938 238.445312 165.761719 235.46875 166.328125 232.496094 C 166.835938 229.585938 168.988281 227.117188 171.769531 226.230469 L 178.984375 224.015625 L 295.394531 313.304688 C 296.910156 314.445312 298.492188 315.015625 300.328125 315.015625 C 301.023438 315.015625 301.910156 314.824219 302.730469 314.632812 L 639.179688 208.574219 L 639.8125 209.082031 C 642.21875 210.917969 643.355469 213.890625 642.914062 216.863281 Z M 642.914062 216.863281 "/><path style=" stroke:none;fill-rule:nonzero;fill:#58cc81;fill-opacity:1;" d="M 256.292969 229.835938 L 496.007812 153.332031 C 501.007812 151.75 506.386719 152.699219 510.5625 155.863281 L 557.628906 191.617188 C 567.941406 199.460938 565.160156 215.664062 552.824219 219.648438 L 313.042969 296.09375 C 308.046875 297.675781 302.667969 296.726562 298.492188 293.5625 L 251.484375 257.808594 C 241.171875 249.960938 243.957031 233.761719 256.292969 229.835938 Z M 256.292969 229.835938 "/><path style=" stroke:none;fill-rule:nonzero;fill:#000000;fill-opacity:1;" d="M 308.234375 299.890625 C 304.125 299.890625 300.074219 298.5625 296.722656 296.03125 L 249.714844 260.277344 C 244.019531 255.972656 241.238281 248.886719 242.503906 241.859375 C 243.703125 234.835938 248.703125 229.140625 255.472656 226.925781 L 495.058594 150.417969 C 500.945312 148.519531 507.460938 149.660156 512.394531 153.394531 L 559.464844 189.148438 C 565.160156 193.449219 567.941406 200.539062 566.679688 207.5625 C 565.476562 214.585938 560.476562 220.28125 553.707031 222.496094 L 313.992188 299.003906 C 312.09375 299.574219 310.132812 299.890625 308.234375 299.890625 Z M 500.882812 155.546875 C 499.550781 155.546875 498.222656 155.734375 496.957031 156.179688 L 257.242188 232.683594 C 252.5625 234.203125 249.207031 238 248.386719 242.875 C 247.5625 247.746094 249.398438 252.429688 253.320312 255.402344 L 300.328125 291.15625 C 303.679688 293.6875 308.109375 294.449219 312.15625 293.183594 L 551.875 216.675781 C 556.554688 215.15625 559.910156 211.359375 560.730469 206.488281 C 561.554688 201.613281 559.71875 196.929688 555.796875 193.957031 L 508.726562 158.203125 C 506.449219 156.496094 503.664062 155.546875 500.882812 155.546875 Z M 256.292969 229.835938 Z M 256.292969 229.835938 "/><path style=" stroke:none;fill-rule:nonzero;fill:#000000;fill-opacity:1;" d="M 291.34375 334.820312 C 288.875 334.820312 286.535156 334 284.574219 332.480469 L 167.46875 242.683594 C 164.179688 240.089844 162.597656 235.976562 163.355469 231.925781 C 163.988281 227.9375 166.960938 224.585938 170.886719 223.320312 L 514.484375 115.046875 C 517.898438 113.96875 521.632812 114.601562 524.542969 116.816406 L 641.773438 206.613281 C 645 209.082031 646.644531 213.195312 645.949219 217.246094 C 645.949219 217.246094 645.949219 217.308594 645.949219 217.308594 C 645.191406 221.421875 642.28125 224.710938 638.359375 225.914062 L 294.632812 334.25 C 293.429688 334.632812 292.355469 334.820312 291.34375 334.820312 Z M 517.773438 120.675781 C 517.265625 120.675781 516.761719 120.742188 516.253906 120.929688 L 172.65625 229.203125 C 170.949219 229.773438 169.554688 231.292969 169.304688 233.066406 C 168.921875 234.898438 169.683594 236.796875 171.136719 237.9375 L 288.242188 327.671875 C 289.507812 328.621094 290.585938 329.125 292.796875 328.429688 L 636.398438 220.15625 C 638.167969 219.585938 639.496094 218.128906 639.875 216.296875 C 640.191406 214.398438 639.433594 212.5625 637.980469 211.484375 L 520.808594 121.691406 C 519.925781 120.992188 518.847656 120.675781 517.773438 120.675781 Z M 642.914062 216.863281 Z M 642.914062 216.863281 "/><path style=" stroke:none;fill-rule:nonzero;fill:#39b54a;fill-opacity:1;" d="M 642.914062 187.882812 C 642.34375 190.855469 640.257812 193.261719 637.410156 194.148438 L 293.683594 302.421875 C 292.863281 302.675781 292.101562 302.800781 291.28125 302.800781 C 289.507812 302.800781 287.863281 302.230469 286.410156 301.09375 L 169.304688 211.359375 C 166.960938 209.523438 165.761719 206.550781 166.328125 203.574219 C 166.835938 200.664062 168.988281 198.195312 171.769531 197.3125 L 515.367188 89.035156 C 517.835938 88.214844 520.558594 88.71875 522.644531 90.300781 L 639.875 180.097656 C 642.21875 181.996094 643.355469 184.90625 642.914062 187.882812 Z M 642.914062 187.882812 "/><path style=" stroke:none;fill-rule:nonzero;fill:#000000;fill-opacity:0.3;" d="M 642.914062 187.882812 C 642.34375 190.855469 640.257812 193.261719 637.410156 194.148438 L 293.683594 302.421875 C 292.863281 302.675781 292.101562 302.800781 291.28125 302.800781 C 289.507812 302.800781 287.863281 302.230469 286.410156 301.09375 L 169.304688 211.359375 C 166.960938 209.523438 165.761719 206.550781 166.328125 203.574219 C 166.835938 200.664062 168.988281 198.195312 171.769531 197.3125 L 178.984375 195.097656 L 295.394531 284.386719 C 296.910156 285.523438 298.492188 286.09375 300.328125 286.09375 C 301.023438 286.09375 301.910156 285.90625 302.730469 285.714844 L 639.179688 179.65625 L 639.8125 180.160156 C 642.21875 181.996094 643.355469 184.90625 642.914062 187.882812 Z M 642.914062 187.882812 "/><path style=" stroke:none;fill-rule:nonzero;fill:#58cc81;fill-opacity:1;" d="M 256.292969 200.855469 L 496.007812 124.347656 C 501.007812 122.765625 506.386719 123.714844 510.5625 126.878906 L 557.628906 162.632812 C 567.941406 170.480469 565.160156 186.679688 552.824219 190.667969 L 313.042969 267.171875 C 308.046875 268.753906 302.667969 267.804688 298.492188 264.640625 L 251.484375 228.886719 C 241.171875 221.042969 243.957031 204.777344 256.292969 200.855469 Z M 256.292969 200.855469 "/><path style=" stroke:none;fill-rule:nonzero;fill:#000000;fill-opacity:1;" d="M 308.234375 270.90625 C 304.125 270.90625 300.074219 269.578125 296.722656 267.046875 L 249.714844 231.292969 C 244.019531 226.988281 241.238281 219.902344 242.503906 212.878906 C 243.703125 205.855469 248.703125 200.160156 255.472656 197.945312 L 495.058594 121.4375 C 500.945312 119.539062 507.460938 120.675781 512.394531 124.410156 L 559.464844 160.164062 C 565.160156 164.46875 567.941406 171.554688 566.679688 178.578125 C 565.476562 185.605469 560.476562 191.300781 553.707031 193.515625 L 313.992188 270.019531 C 312.09375 270.652344 310.132812 270.90625 308.234375 270.90625 Z M 500.882812 126.625 C 499.550781 126.625 498.222656 126.816406 496.957031 127.257812 L 257.242188 203.765625 C 252.5625 205.285156 249.207031 209.082031 248.386719 213.953125 C 247.5625 218.828125 249.398438 223.507812 253.320312 226.484375 L 300.328125 262.238281 C 303.679688 264.769531 308.109375 265.527344 312.15625 264.261719 L 551.875 187.753906 C 556.554688 186.238281 559.910156 182.441406 560.730469 177.566406 C 561.554688 172.695312 559.71875 168.011719 555.796875 165.039062 L 508.726562 129.285156 C 506.449219 127.511719 503.664062 126.625 500.882812 126.625 Z M 256.292969 200.855469 Z M 256.292969 200.855469 "/><path style=" stroke:none;fill-rule:nonzero;fill:#000000;fill-opacity:1;" d="M 291.34375 305.839844 C 288.875 305.839844 286.535156 305.015625 284.574219 303.496094 L 167.46875 213.765625 C 164.179688 211.167969 162.597656 207.054688 163.355469 203.007812 C 163.988281 199.019531 166.960938 195.664062 170.886719 194.398438 L 514.484375 86.125 C 517.898438 85.050781 521.632812 85.683594 524.542969 87.898438 L 641.773438 177.695312 C 645 180.160156 646.644531 184.273438 645.949219 188.324219 C 645.949219 188.324219 645.949219 188.386719 645.949219 188.386719 C 645.191406 192.5 642.28125 195.792969 638.359375 196.996094 L 294.632812 305.332031 C 293.429688 305.648438 292.355469 305.839844 291.34375 305.839844 Z M 517.773438 91.695312 C 517.265625 91.695312 516.761719 91.757812 516.316406 91.949219 L 172.65625 200.222656 C 170.949219 200.792969 169.554688 202.308594 169.304688 204.082031 C 168.921875 205.917969 169.683594 207.816406 171.136719 208.953125 L 288.242188 298.6875 C 289.507812 299.636719 290.585938 300.144531 292.796875 299.445312 L 636.398438 191.171875 C 638.167969 190.601562 639.496094 189.148438 639.875 187.3125 C 640.191406 185.414062 639.433594 183.578125 637.980469 182.441406 L 520.808594 92.769531 C 519.925781 92.074219 518.847656 91.695312 517.773438 91.695312 Z M 642.914062 187.882812 Z M 642.914062 187.882812 "/><path style=" stroke:none;fill-rule:nonzero;fill:#39b54a;fill-opacity:1;" d="M 642.914062 158.960938 C 642.34375 161.9375 640.257812 164.339844 637.410156 165.226562 L 293.683594 273.5 C 292.863281 273.753906 292.101562 273.882812 291.28125 273.882812 C 289.507812 273.882812 287.863281 273.3125 286.410156 272.171875 L 169.304688 182.441406 C 166.960938 180.605469 165.761719 177.628906 166.328125 174.65625 C 166.835938 171.746094 168.988281 169.277344 171.769531 168.390625 L 515.367188 60.117188 C 517.835938 59.292969 520.558594 59.800781 522.644531 61.382812 L 639.875 151.179688 C 642.21875 153.015625 643.355469 155.988281 642.914062 158.960938 Z M 642.914062 158.960938 "/><path style=" stroke:none;fill-rule:nonzero;fill:#000000;fill-opacity:0.3;" d="M 642.914062 158.960938 C 642.34375 161.9375 640.257812 164.339844 637.410156 165.226562 L 293.683594 273.5 C 292.863281 273.753906 292.101562 273.882812 291.28125 273.882812 C 289.507812 273.882812 287.863281 273.3125 286.410156 272.171875 L 169.304688 182.441406 C 166.960938 180.605469 165.761719 177.628906 166.328125 174.65625 C 166.835938 171.746094 168.988281 169.277344 171.769531 168.390625 L 178.984375 166.175781 L 295.394531 255.464844 C 296.910156 256.605469 298.492188 257.175781 300.328125 257.175781 C 301.023438 257.175781 301.910156 256.984375 302.730469 256.796875 L 639.179688 150.734375 L 639.8125 151.242188 C 642.21875 153.015625 643.355469 155.988281 642.914062 158.960938 Z M 642.914062 158.960938 "/><path style=" stroke:none;fill-rule:nonzero;fill:#58cc81;fill-opacity:1;" d="M 256.292969 168.390625 L 496.007812 91.882812 C 501.007812 90.300781 506.386719 91.25 510.5625 94.414062 L 557.628906 130.167969 C 567.941406 138.015625 565.160156 154.214844 552.824219 158.203125 L 313.042969 234.648438 C 308.046875 236.230469 302.667969 235.28125 298.492188 232.117188 L 251.484375 196.363281 C 241.171875 188.578125 243.957031 172.316406 256.292969 168.390625 Z M 256.292969 168.390625 "/><path style=" stroke:none;fill-rule:nonzero;fill:#000000;fill-opacity:0.3;" d="M 552.824219 158.140625 L 313.105469 234.648438 C 308.109375 236.230469 302.667969 235.28125 298.492188 232.117188 L 251.484375 196.363281 C 242.628906 189.589844 243.515625 176.617188 251.867188 170.667969 C 252.75 173.832031 254.585938 176.746094 257.558594 178.960938 L 304.566406 214.714844 C 308.742188 217.878906 314.183594 218.828125 319.179688 217.246094 L 558.832031 140.675781 C 560.539062 140.105469 561.996094 139.410156 563.324219 138.332031 C 565.601562 146.242188 561.617188 155.355469 552.824219 158.140625 Z M 552.824219 158.140625 "/><path style=" stroke:none;fill-rule:nonzero;fill:#000000;fill-opacity:1;" d="M 308.234375 238.445312 C 304.125 238.445312 300.074219 237.113281 296.722656 234.582031 L 249.714844 198.828125 C 244.019531 194.527344 241.238281 187.4375 242.503906 180.414062 C 243.703125 173.390625 248.703125 167.695312 255.472656 165.480469 L 495.058594 88.972656 C 500.945312 87.074219 507.460938 88.214844 512.394531 91.949219 L 559.464844 127.703125 C 565.160156 132.003906 567.941406 139.09375 566.679688 146.117188 C 565.476562 153.140625 560.476562 158.835938 553.707031 161.050781 L 313.992188 237.558594 C 312.09375 238.191406 310.132812 238.445312 308.234375 238.445312 Z M 500.882812 94.164062 C 499.550781 94.164062 498.222656 94.351562 496.957031 94.796875 L 257.242188 171.300781 C 252.5625 172.820312 249.207031 176.617188 248.386719 181.492188 C 247.5625 186.363281 249.398438 191.046875 253.320312 194.019531 L 300.328125 229.773438 C 303.679688 232.304688 308.109375 233.066406 312.15625 231.800781 L 551.875 155.292969 C 556.554688 153.773438 559.910156 149.976562 560.730469 145.105469 C 561.554688 140.230469 559.71875 135.546875 555.796875 132.574219 L 508.726562 96.820312 C 506.449219 95.046875 503.664062 94.164062 500.882812 94.164062 Z M 256.292969 168.390625 Z M 256.292969 168.390625 "/><path style=" stroke:none;fill-rule:nonzero;fill:#000000;fill-opacity:1;" d="M 291.34375 276.917969 C 288.875 276.917969 286.535156 276.097656 284.574219 274.578125 L 167.46875 184.84375 C 164.179688 182.25 162.597656 178.136719 163.355469 174.085938 C 164.050781 170.101562 166.960938 166.746094 170.886719 165.480469 L 514.484375 57.207031 C 517.898438 56.128906 521.632812 56.761719 524.542969 58.976562 L 641.773438 148.773438 C 645 151.242188 646.644531 155.355469 645.949219 159.40625 C 645.949219 159.40625 645.949219 159.46875 645.949219 159.46875 C 645.191406 163.582031 642.28125 166.871094 638.359375 168.074219 L 294.632812 276.347656 C 293.429688 276.730469 292.355469 276.917969 291.34375 276.917969 Z M 517.773438 62.773438 C 517.265625 62.773438 516.761719 62.839844 516.253906 63.027344 L 172.65625 171.300781 C 170.949219 171.871094 169.554688 173.390625 169.304688 175.164062 C 168.921875 176.996094 169.683594 178.894531 171.136719 180.035156 L 288.242188 269.769531 C 289.507812 270.71875 290.585938 271.222656 292.796875 270.527344 L 636.398438 162.253906 C 638.167969 161.683594 639.496094 160.226562 639.875 158.394531 C 640.191406 156.496094 639.433594 154.660156 637.980469 153.519531 L 520.808594 63.789062 C 519.925781 63.15625 518.847656 62.773438 517.773438 62.773438 Z M 642.914062 158.960938 Z M 642.914062 158.960938 "/><path style=" stroke:none;fill-rule:nonzero;fill:#f39941;fill-opacity:1;" d="M 399.65625 179.210938 C 392.886719 179.210938 387.382812 173.707031 387.382812 166.9375 L 387.382812 160.734375 C 369.921875 155.417969 357.710938 139.34375 357.710938 120.742188 C 357.710938 113.96875 363.214844 108.464844 369.984375 108.464844 C 376.753906 108.464844 382.257812 113.96875 382.257812 120.742188 C 382.257812 130.296875 390.039062 138.078125 399.65625 138.078125 C 409.207031 138.078125 416.988281 130.296875 416.988281 120.742188 C 416.988281 111.121094 409.207031 103.339844 399.65625 103.339844 C 376.5625 103.339844 357.773438 84.542969 357.773438 61.507812 C 357.773438 42.839844 369.984375 26.769531 387.445312 21.515625 L 387.445312 15.3125 C 387.445312 8.542969 392.949219 3.039062 399.71875 3.039062 C 406.488281 3.039062 411.992188 8.542969 411.992188 15.3125 L 411.992188 21.515625 C 429.390625 26.769531 441.601562 42.839844 441.601562 61.507812 C 441.601562 68.28125 436.097656 73.785156 429.328125 73.785156 C 422.558594 73.785156 417.054688 68.28125 417.054688 61.507812 C 417.054688 51.953125 409.273438 44.171875 399.71875 44.171875 C 390.101562 44.171875 382.320312 51.953125 382.320312 61.507812 C 382.320312 71.066406 390.101562 78.847656 399.71875 78.847656 C 422.8125 78.847656 441.539062 97.644531 441.539062 120.742188 C 441.539062 139.34375 429.390625 155.417969 411.929688 160.734375 L 411.929688 166.9375 C 411.867188 173.707031 406.363281 179.210938 399.65625 179.210938 Z M 399.65625 179.210938 "/><path style=" stroke:none;fill-rule:nonzero;fill:#000000;fill-opacity:0.3;" d="M 407.4375 172.949219 C 408.511719 172.949219 409.589844 172.820312 410.535156 172.503906 C 408.511719 176.492188 404.335938 179.210938 399.65625 179.210938 C 392.886719 179.210938 387.382812 173.707031 387.382812 166.9375 L 387.382812 160.734375 C 369.921875 155.417969 357.710938 139.34375 357.710938 120.742188 C 357.710938 115.046875 361.632812 110.234375 366.882812 108.90625 C 365.996094 110.550781 365.554688 112.449219 365.554688 114.476562 C 365.554688 133.082031 377.765625 149.152344 395.164062 154.46875 L 395.164062 160.671875 C 395.164062 167.503906 400.667969 172.949219 407.4375 172.949219 Z M 407.4375 172.949219 "/><path style=" stroke:none;fill-rule:nonzero;fill:#000000;fill-opacity:0.3;" d="M 413.828125 130.613281 C 415.789062 127.828125 416.925781 124.410156 416.925781 120.742188 C 416.925781 111.121094 409.144531 103.339844 399.59375 103.339844 C 376.5 103.339844 357.710938 84.605469 357.710938 61.507812 C 357.710938 46.636719 365.492188 33.347656 377.511719 25.945312 C 370.046875 33.539062 365.554688 43.917969 365.554688 55.246094 C 365.554688 78.34375 384.28125 97.074219 407.375 97.074219 C 416.988281 97.074219 424.707031 104.921875 424.707031 114.476562 C 424.773438 121.753906 420.214844 128.082031 413.828125 130.613281 Z M 413.828125 130.613281 "/><path style=" stroke:none;fill-rule:nonzero;fill:#000000;fill-opacity:0.3;" d="M 440.082031 67.140625 C 438.058594 71.066406 433.945312 73.785156 429.265625 73.785156 C 422.496094 73.785156 416.988281 68.28125 416.988281 61.507812 C 416.988281 51.953125 409.207031 44.171875 399.65625 44.171875 C 397.378906 44.171875 395.226562 44.613281 393.203125 45.371094 C 396.300781 40.816406 401.554688 37.90625 407.4375 37.90625 C 417.054688 37.90625 424.773438 45.6875 424.773438 55.246094 C 424.773438 62.015625 430.277344 67.519531 437.046875 67.519531 C 438.058594 67.519531 439.070312 67.394531 440.082031 67.140625 Z M 440.082031 67.140625 "/><path style=" stroke:none;fill-rule:nonzero;fill:#000000;fill-opacity:1;" d="M 399.65625 182.25 C 391.242188 182.25 384.34375 175.414062 384.34375 166.9375 L 384.34375 162.886719 C 366.503906 156.496094 354.671875 139.789062 354.671875 120.675781 C 354.671875 112.261719 361.503906 105.363281 369.921875 105.363281 C 378.335938 105.363281 385.230469 112.199219 385.230469 120.675781 C 385.230469 128.585938 391.683594 134.980469 399.59375 134.980469 C 407.5 134.980469 413.890625 128.585938 413.890625 120.675781 C 413.890625 112.765625 407.4375 106.3125 399.59375 106.3125 C 374.792969 106.3125 354.671875 86.1875 354.671875 61.445312 C 354.671875 42.273438 366.503906 25.566406 384.34375 19.238281 L 384.34375 15.3125 C 384.34375 6.835938 391.175781 0 399.65625 0 C 408.132812 0 414.964844 6.835938 414.964844 15.3125 L 414.964844 19.300781 C 432.742188 25.628906 444.574219 42.335938 444.574219 61.507812 C 444.574219 69.925781 437.742188 76.824219 429.265625 76.824219 C 420.847656 76.824219 414.015625 69.988281 414.015625 61.507812 C 414.015625 53.597656 407.5625 47.207031 399.71875 47.207031 C 391.808594 47.207031 385.355469 53.597656 385.355469 61.507812 C 385.355469 69.417969 391.808594 75.8125 399.71875 75.8125 C 424.457031 75.8125 444.574219 95.996094 444.574219 120.742188 C 444.574219 139.851562 432.804688 156.496094 414.964844 162.949219 L 414.964844 167 C 414.902344 175.351562 408.070312 182.25 399.65625 182.25 Z M 369.984375 111.5 C 364.921875 111.5 360.746094 115.613281 360.746094 120.742188 C 360.746094 137.890625 371.816406 152.824219 388.265625 157.824219 C 389.53125 158.203125 390.417969 159.40625 390.417969 160.734375 L 390.417969 166.9375 C 390.417969 172 394.53125 176.175781 399.65625 176.175781 C 404.78125 176.175781 408.890625 172.0625 408.890625 166.9375 L 408.890625 160.734375 C 408.890625 159.40625 409.777344 158.203125 411.042969 157.824219 C 427.429688 152.824219 438.5 137.890625 438.5 120.742188 C 438.5 99.289062 421.101562 81.824219 399.71875 81.824219 C 388.457031 81.824219 379.285156 72.710938 379.285156 61.445312 C 379.285156 50.183594 388.457031 41.070312 399.71875 41.070312 C 410.980469 41.070312 420.089844 50.183594 420.089844 61.445312 C 420.089844 66.507812 424.203125 70.683594 429.328125 70.683594 C 434.386719 70.683594 438.5625 66.570312 438.5625 61.445312 C 438.5625 44.234375 427.554688 29.300781 411.105469 24.300781 C 409.839844 23.921875 408.957031 22.71875 408.957031 21.390625 L 408.957031 15.3125 C 408.957031 10.25 404.84375 6.074219 399.71875 6.074219 C 394.59375 6.074219 390.480469 10.1875 390.480469 15.3125 L 390.480469 21.515625 C 390.480469 22.84375 389.597656 24.046875 388.332031 24.425781 C 371.882812 29.425781 360.808594 44.296875 360.808594 61.574219 C 360.808594 82.960938 378.269531 100.363281 399.65625 100.363281 C 410.917969 100.363281 420.027344 109.539062 420.027344 120.804688 C 420.027344 132.066406 410.917969 141.179688 399.65625 141.179688 C 388.394531 141.179688 379.21875 132.066406 379.21875 120.804688 C 379.21875 115.679688 375.042969 111.5 369.984375 111.5 Z M 369.984375 111.5 "/></g></svg>