<svg xmlns="http://www.w3.org/2000/svg" xmlns:xlink="http://www.w3.org/1999/xlink" width="1080" zoomAndPan="magnify" viewBox="0 0 810 809.999993" height="1080" preserveAspectRatio="xMidYMid meet" version="1.2"><g id="9a1dc8820d"><path style=" stroke:none;fill-rule:nonzero;fill:#000000;fill-opacity:1;" d="M 405 169.695312 C 275.25 169.695312 169.695312 275.25 169.695312 405 C 169.695312 534.75 275.25 640.304688 405 640.304688 C 534.75 640.304688 640.304688 534.75 640.304688 405 C 640.304688 275.25 534.75 169.695312 405 169.695312 Z M 405 620.136719 C 286.375 620.136719 189.863281 523.625 189.863281 405 C 189.863281 286.375 286.375 189.863281 405 189.863281 C 523.625 189.863281 620.136719 286.375 620.136719 405 C 620.136719 523.625 523.625 620.136719 405 620.136719 Z M 801.277344 340.9375 L 720.160156 329.832031 C 712.210938 296.390625 699.054688 264.660156 680.972656 235.320312 L 730.496094 170.066406 C 733.539062 166.050781 733.152344 160.402344 729.589844 156.839844 L 653.125 80.378906 C 649.5625 76.816406 643.917969 76.429688 639.898438 79.472656 L 574.664062 128.996094 C 545.339844 110.914062 513.59375 97.769531 480.152344 89.824219 L 469.042969 8.6875 C 468.355469 3.695312 464.085938 -0.0351562 459.0625 -0.0351562 L 350.921875 -0.0351562 C 345.878906 -0.0351562 341.613281 3.679688 340.9375 8.6875 L 329.832031 89.824219 C 296.390625 97.769531 264.660156 110.914062 235.320312 128.996094 L 170.082031 79.488281 C 166.066406 76.445312 160.421875 76.832031 156.859375 80.394531 L 80.394531 156.859375 C 76.832031 160.421875 76.445312 166.066406 79.488281 170.082031 L 129.011719 235.320312 C 110.929688 264.660156 97.769531 296.390625 89.839844 329.832031 L 8.722656 340.9375 C 3.730469 341.628906 0 345.898438 0 350.921875 L 0 459.0625 C 0 464.101562 3.714844 468.371094 8.722656 469.042969 L 89.839844 480.152344 C 97.789062 513.59375 110.945312 545.320312 129.027344 574.664062 L 79.488281 639.917969 C 76.445312 643.933594 76.832031 649.578125 80.394531 653.140625 L 156.859375 729.605469 C 160.421875 733.167969 166.066406 733.554688 170.082031 730.511719 L 235.320312 680.988281 C 264.660156 699.070312 296.390625 712.210938 329.832031 720.160156 L 340.9375 801.296875 C 341.628906 806.285156 345.898438 810.015625 350.921875 810.015625 L 459.0625 810.015625 C 464.101562 810.015625 468.371094 806.304688 469.042969 801.296875 L 480.152344 720.160156 C 513.59375 712.210938 545.320312 699.070312 574.664062 680.988281 L 639.917969 730.511719 C 643.933594 733.554688 649.578125 733.167969 653.140625 729.605469 L 729.605469 653.140625 C 733.167969 649.578125 733.554688 643.933594 730.511719 639.917969 L 680.988281 574.664062 C 699.070312 545.339844 712.230469 513.609375 720.160156 480.152344 L 801.277344 469.042969 C 806.269531 468.355469 810 464.085938 810 459.0625 L 810 350.921875 C 810 345.898438 806.285156 341.628906 801.277344 340.9375 Z M 789.835938 450.273438 L 710.496094 461.128906 C 706.296875 461.699219 702.902344 464.859375 702.011719 469.011719 C 694.316406 504.921875 680.265625 538.800781 660.269531 569.722656 C 657.964844 573.285156 658.132812 577.921875 660.703125 581.300781 L 709.136719 645.109375 L 645.109375 709.136719 L 581.300781 660.703125 C 577.921875 658.132812 573.285156 657.964844 569.722656 660.269531 C 538.785156 680.265625 504.90625 694.316406 469.011719 702.011719 C 464.859375 702.902344 461.71875 706.296875 461.128906 710.496094 L 450.273438 789.835938 L 359.726562 789.835938 L 348.871094 710.496094 C 348.300781 706.296875 345.140625 702.902344 340.988281 702.011719 C 305.078125 694.316406 271.199219 680.265625 240.277344 660.269531 C 236.714844 657.964844 232.09375 658.132812 228.699219 660.703125 L 164.890625 709.136719 L 100.863281 645.109375 L 149.3125 581.300781 C 151.882812 577.921875 152.050781 573.285156 149.75 569.722656 C 129.734375 538.800781 115.683594 504.90625 107.988281 469.011719 C 107.097656 464.859375 103.703125 461.71875 99.503906 461.128906 L 20.164062 450.273438 L 20.164062 359.726562 L 99.503906 348.871094 C 103.703125 348.300781 107.097656 345.140625 107.988281 340.988281 C 115.683594 305.09375 129.734375 271.199219 149.730469 240.277344 C 152.035156 236.714844 151.867188 232.09375 149.296875 228.699219 L 100.863281 164.890625 L 164.890625 100.863281 L 228.699219 149.296875 C 232.078125 151.867188 236.714844 152.035156 240.277344 149.730469 C 271.199219 129.734375 305.09375 115.683594 340.988281 107.988281 C 345.140625 107.097656 348.285156 103.703125 348.871094 99.503906 L 359.726562 20.164062 L 450.273438 20.164062 L 461.128906 99.503906 C 461.699219 103.703125 464.859375 107.097656 469.011719 107.988281 C 504.921875 115.683594 538.800781 129.734375 569.722656 149.730469 C 573.285156 152.035156 577.90625 151.867188 581.300781 149.296875 L 645.109375 100.863281 L 709.136719 164.890625 L 660.6875 228.699219 C 658.117188 232.078125 657.949219 236.714844 660.25 240.277344 C 680.265625 271.199219 694.316406 305.09375 702.011719 340.988281 C 702.902344 345.140625 706.296875 348.285156 710.496094 348.871094 L 789.816406 359.726562 L 789.816406 450.273438 Z M 530.148438 265.738281 L 478.859375 289.5 C 476.976562 290.375 475.394531 291.800781 474.371094 293.601562 L 455.816406 325.714844 L 417.839844 363.792969 L 398.195312 344.148438 C 402.765625 319.933594 395.136719 294.742188 377.558594 277.164062 C 360.921875 260.527344 337.058594 252.613281 313.75 256.007812 C 305.917969 257.148438 299.5 262.511719 297.011719 270.039062 C 294.523438 277.550781 296.441406 285.703125 302.035156 291.296875 L 332.65625 321.917969 C 332.773438 322.035156 332.773438 322.304688 332.65625 322.4375 L 316.824219 338.265625 C 316.773438 338.316406 316.371094 338.316406 316.304688 338.265625 L 285.683594 307.648438 C 280.089844 302.054688 271.9375 300.121094 264.425781 302.625 C 256.914062 305.109375 251.535156 311.53125 250.394531 319.363281 C 247 342.671875 254.914062 366.535156 271.550781 383.171875 C 289.128906 400.75 314.320312 408.378906 338.535156 403.808594 L 351.375 416.644531 L 282.324219 484.300781 C 282.273438 484.351562 282.222656 484.402344 282.171875 484.453125 C 267.382812 499.527344 267.367188 524.097656 282.105469 539.203125 L 285.800781 542.984375 C 293.296875 550.664062 302.910156 554.730469 313.632812 554.78125 C 313.699219 554.78125 313.765625 554.78125 313.832031 554.78125 C 324.46875 554.78125 334.066406 550.800781 341.578125 543.238281 C 341.613281 543.203125 341.660156 543.152344 341.695312 543.121094 L 408.480469 473.664062 L 474.839844 540.027344 C 482.773438 547.960938 493.359375 552.347656 504.652344 552.347656 C 515.945312 552.347656 526.535156 547.976562 534.464844 540.027344 C 542.398438 532.097656 546.785156 521.507812 546.785156 510.214844 C 546.785156 498.921875 542.414062 488.335938 534.464844 480.402344 L 461.816406 407.757812 L 500.484375 370.265625 L 532.027344 350.871094 C 533.742188 349.8125 535.105469 348.265625 535.945312 346.433594 L 559.453125 294.371094 C 561.203125 290.492188 560.328125 285.9375 557.269531 282.980469 L 541.40625 267.636719 C 538.398438 264.730469 533.929688 263.972656 530.148438 265.738281 Z M 327.226562 529.089844 C 323.496094 532.820312 319.109375 534.632812 313.832031 534.632812 C 313.800781 534.632812 313.765625 534.632812 313.730469 534.632812 C 308.386719 534.617188 303.96875 532.734375 300.238281 528.902344 L 296.539062 525.121094 C 289.414062 517.8125 289.398438 505.949219 296.507812 498.636719 L 365.675781 430.878906 L 394.210938 459.414062 Z M 520.214844 525.777344 C 511.628906 534.347656 497.679688 534.347656 489.109375 525.777344 L 348.90625 385.574219 C 346.988281 383.65625 344.417969 382.617188 341.78125 382.617188 C 340.890625 382.617188 340 382.734375 339.125 382.96875 C 320.152344 388.160156 299.75 382.75 285.871094 368.871094 C 273.519531 356.519531 267.886719 339.527344 270.410156 322.21875 C 270.460938 321.882812 270.507812 321.816406 270.828125 321.714844 C 271.148438 321.613281 271.230469 321.628906 271.46875 321.867188 L 302.085938 352.484375 C 305.953125 356.351562 311.109375 358.484375 316.605469 358.484375 C 322.101562 358.484375 327.261719 356.351562 331.125 352.484375 L 346.957031 336.652344 C 354.953125 328.65625 354.953125 315.632812 346.957031 307.613281 L 316.335938 276.996094 C 316.101562 276.761719 316.085938 276.675781 316.1875 276.359375 C 316.285156 276.039062 316.355469 275.988281 316.691406 275.9375 C 333.980469 273.433594 351.003906 279.0625 363.339844 291.398438 C 377.222656 305.277344 382.617188 325.679688 377.441406 344.652344 C 376.480469 348.148438 377.472656 351.878906 380.027344 354.449219 L 520.230469 494.65625 C 528.800781 503.242188 528.800781 517.191406 520.214844 525.777344 Z M 518.835938 335.308594 L 488.992188 353.660156 C 488.371094 354.046875 487.78125 354.5 487.261719 355.003906 L 447.582031 393.472656 L 432.140625 378.027344 L 471.058594 338.988281 C 471.683594 338.367188 472.21875 337.679688 472.65625 336.90625 L 490.269531 306.421875 L 532.382812 286.910156 L 538.179688 292.507812 Z M 518.835938 335.308594 "/></g></svg>